<?xml version="1.0" standalone="no"?>
<!DOCTYPE svg PUBLIC "-//W3C//DTD SVG 20010904//EN"
 "http://www.w3.org/TR/2001/REC-SVG-20010904/DTD/svg10.dtd">
<svg version="1.0" xmlns="http://www.w3.org/2000/svg"
 width="1600.000000pt" height="1600.000000pt" viewBox="0 0 1600.000000 1600.000000"
 preserveAspectRatio="xMidYMid meet">

<g transform="translate(0.000000,1600.000000) scale(0.100000,-0.100000)"
fill="#000000" stroke="none">
<path d="M6380 12577 c-19 -7 -60 -30 -90 -50 -30 -20 -79 -52 -107 -72 -29
-19 -53 -39 -53 -43 0 -5 -16 -16 -35 -25 -19 -9 -35 -21 -35 -27 0 -5 -6 -10
-13 -10 -18 0 -78 -46 -70 -53 3 -4 -4 -7 -17 -7 -13 0 -39 -16 -61 -39 -22
-21 -39 -36 -39 -32 0 3 -5 -2 -11 -12 -5 -9 -23 -24 -38 -32 -37 -19 -88 -70
-96 -95 -4 -13 -15 -20 -32 -20 -17 0 -44 -19 -87 -60 -33 -34 -87 -80 -120
-103 -32 -23 -90 -68 -128 -100 -39 -32 -81 -63 -94 -67 -13 -5 -24 -14 -24
-19 0 -5 -16 -15 -35 -21 -19 -6 -35 -18 -35 -25 0 -11 -27 -26 -50 -28 -10
-1 -28 -22 -24 -28 4 -8 -28 -38 -40 -37 -23 2 -139 -103 -351 -321 -84 -85
-107 -106 -133 -120 -13 -7 -50 -39 -83 -71 -33 -33 -62 -59 -64 -60 -9 -1
-178 -170 -171 -170 4 0 -7 -12 -25 -27 -18 -16 -36 -28 -40 -28 -7 0 -186
-174 -320 -310 -38 -38 -69 -75 -69 -81 0 -6 -14 -24 -31 -40 -54 -50 -89 -88
-89 -96 0 -4 -31 -38 -68 -75 -70 -71 -169 -199 -165 -214 2 -5 -2 -8 -8 -6
-6 1 -19 -14 -30 -33 -10 -19 -28 -46 -39 -60 -56 -68 -120 -161 -120 -174 0
-8 -7 -19 -16 -24 -8 -5 -21 -24 -27 -43 -7 -19 -22 -47 -35 -64 -12 -16 -21
-32 -20 -35 2 -3 -7 -16 -19 -30 -13 -13 -23 -32 -23 -41 0 -10 -4 -20 -8 -23
-12 -7 -82 -143 -82 -158 0 -7 -14 -33 -30 -57 -33 -49 -37 -61 -16 -61 13 0
30 -76 20 -92 -3 -4 -18 -5 -34 -1 -18 3 -36 0 -45 -7 -23 -19 -105 -174 -105
-197 0 -11 -15 -53 -34 -94 -25 -54 -33 -84 -30 -111 3 -28 0 -40 -15 -50 -20
-14 -29 -41 -38 -112 -3 -22 -13 -53 -23 -69 -12 -20 -16 -41 -13 -68 5 -31 2
-39 -10 -39 -8 0 -18 6 -21 13 -3 6 -3 2 0 -10 3 -12 -2 -32 -10 -45 -8 -13
-14 -37 -12 -53 3 -26 7 -30 30 -27 18 2 26 -1 26 -12 0 -9 5 -16 10 -16 6 0
10 5 10 11 0 5 5 7 12 3 8 -5 9 -2 5 9 -3 9 0 22 7 29 7 7 15 30 19 50 3 20
15 46 26 57 22 22 24 29 21 73 -1 15 5 30 14 35 10 5 17 31 22 73 5 45 14 74
30 96 29 37 29 42 7 46 -15 3 -13 7 8 28 32 32 43 60 24 60 -22 0 -19 8 20 44
22 21 33 39 30 49 -4 8 3 30 14 48 12 19 21 41 21 49 0 8 9 21 20 28 11 6 17
18 14 26 -3 8 11 38 30 66 20 29 39 64 43 79 3 14 11 32 17 40 6 7 11 19 12
25 0 6 2 17 2 24 1 7 6 10 12 7 5 -3 15 7 21 22 7 15 22 49 35 74 13 25 21 49
17 52 -3 4 0 14 7 22 7 9 14 32 14 52 1 20 7 38 14 41 6 2 12 -1 12 -8 0 -6 9
-2 20 8 13 12 18 25 14 35 -4 12 1 19 15 25 22 8 32 21 72 100 12 24 28 46 36
49 7 3 29 32 48 65 26 43 35 71 35 103 0 43 0 44 37 47 30 2 42 10 60 37 27
40 29 51 8 51 -8 0 -15 7 -15 15 0 10 11 15 35 15 28 0 39 6 58 35 13 19 26
33 29 30 3 -3 11 1 18 10 10 12 9 15 -6 15 -13 1 -6 8 21 25 46 28 53 43 54
108 1 35 5 47 16 47 10 0 15 -10 15 -30 0 -16 3 -30 6 -30 15 0 44 22 39 31
-4 5 -1 9 4 9 15 0 14 47 -1 53 -8 3 -3 9 12 15 14 5 26 6 28 1 6 -14 82 63
82 83 0 10 6 18 13 18 6 0 30 16 51 35 22 19 42 35 45 35 3 0 17 16 31 36 13
20 37 41 52 46 27 10 33 25 29 71 -2 13 5 17 27 17 18 0 32 6 36 16 4 9 9 14
12 11 4 -3 -14 -37 -39 -74 -24 -37 -47 -80 -51 -95 -3 -16 -11 -28 -16 -28
-6 0 -10 -7 -10 -15 0 -7 -7 -18 -15 -23 -9 -4 -17 -18 -19 -29 -3 -12 -13
-30 -24 -41 -11 -11 -30 -41 -43 -68 -13 -27 -31 -54 -39 -61 -8 -7 -11 -13
-6 -13 5 0 0 -10 -11 -22 -18 -19 -119 -202 -125 -225 -1 -5 -6 -12 -10 -18
-5 -5 -20 -28 -35 -50 -153 -231 -153 -229 -160 -275 -2 -14 -13 -33 -24 -43
-10 -10 -19 -24 -19 -32 0 -8 -9 -20 -20 -27 -11 -7 -20 -18 -20 -23 0 -6 -16
-41 -35 -78 -19 -37 -35 -74 -35 -82 0 -8 -4 -15 -9 -15 -4 0 -20 -28 -35 -62
-15 -35 -47 -103 -71 -153 -70 -145 -95 -203 -95 -217 0 -7 -9 -28 -20 -46
-11 -18 -20 -38 -20 -45 0 -7 -9 -29 -20 -50 -11 -20 -20 -48 -20 -61 0 -14
-4 -28 -10 -31 -5 -3 -10 -19 -10 -36 0 -16 -4 -29 -9 -29 -5 0 -13 -10 -16
-22 -4 -13 -15 -41 -26 -63 -17 -37 -26 -79 -28 -130 -1 -15 -3 -17 -10 -7 -6
10 -14 4 -31 -25 -13 -21 -43 -55 -67 -77 -24 -21 -43 -44 -43 -52 0 -8 -9
-14 -20 -14 -11 0 -20 -4 -20 -10 0 -5 -7 -10 -16 -10 -8 0 -13 -4 -10 -9 4
-5 -9 -19 -27 -30 -31 -19 -107 -100 -116 -124 -6 -15 -113 -119 -118 -114 -2
3 3 11 11 20 8 8 14 27 12 43 -1 16 2 39 7 51 8 19 6 27 -15 45 -14 13 -28 31
-31 41 -9 23 -28 22 -34 -3 -3 -11 -9 -20 -13 -20 -4 0 -8 -15 -8 -33 0 -29
-17 -94 -43 -167 -5 -14 -11 -56 -14 -95 -7 -94 -14 -122 -31 -129 -8 -3 -14
-15 -14 -26 0 -11 -4 -20 -10 -20 -5 0 -10 -6 -10 -13 0 -8 -9 -22 -20 -32
-11 -10 -20 -24 -20 -32 0 -7 -4 -13 -9 -13 -5 0 -15 -16 -21 -35 -6 -19 -15
-35 -18 -35 -4 0 -12 -10 -18 -23 -24 -50 -97 -183 -105 -191 -5 -6 -9 -15 -9
-22 0 -6 -17 -42 -38 -81 -21 -38 -37 -74 -34 -81 2 -7 -3 -15 -12 -18 -9 -3
-16 -17 -16 -30 0 -12 -6 -27 -14 -31 -17 -10 -42 -59 -51 -100 -3 -18 -10
-33 -15 -33 -12 0 -29 -79 -19 -86 5 -3 9 -9 9 -15 0 -11 -26 -12 -33 -1 -2 4
-3 2 -1 -4 1 -6 -7 -27 -18 -45 -27 -45 -64 -144 -72 -193 -4 -21 -8 -41 -10
-45 -2 -3 -7 -27 -10 -52 -3 -26 -13 -69 -21 -95 -8 -27 -17 -78 -20 -114 -3
-36 -8 -81 -12 -100 -3 -19 -6 -70 -7 -112 -1 -43 -4 -78 -8 -78 -9 0 -4 -293
6 -308 4 -7 2 -12 -3 -12 -6 0 -11 -5 -11 -11 0 -5 3 -8 8 -6 4 3 7 -14 7 -36
1 -36 8 -89 15 -107 1 -3 3 -9 4 -15 2 -11 25 -91 33 -115 3 -8 7 -24 9 -35
15 -86 22 -117 23 -102 2 31 31 20 31 -13 0 -16 -4 -30 -9 -30 -14 0 -1 -70
21 -108 10 -18 18 -39 18 -47 0 -8 30 -73 67 -145 89 -170 89 -170 102 -183 6
-6 11 -17 11 -25 0 -7 14 -33 30 -57 17 -24 30 -47 30 -52 0 -13 77 -126 121
-178 14 -16 28 -38 32 -48 4 -9 14 -17 22 -17 9 0 14 -4 10 -10 -3 -5 11 -25
32 -45 90 -84 148 -135 154 -135 3 0 25 -18 49 -41 38 -36 117 -82 145 -83 15
-1 34 -20 28 -29 -2 -4 0 -7 6 -7 5 0 16 -7 24 -15 26 -25 120 -62 166 -64 30
-1 54 -10 73 -26 30 -26 85 -41 118 -32 11 3 18 1 14 -4 -3 -5 5 -9 17 -9 12
0 19 3 16 7 -4 3 -2 12 4 20 9 10 6 13 -14 13 -16 0 -26 7 -30 20 -3 11 -1 18
4 14 5 -3 9 -1 9 5 0 5 -6 12 -12 14 -7 3 -3 6 9 6 16 1 21 -3 17 -14 -4 -11
0 -15 16 -15 20 0 22 -4 18 -35 l-4 -36 50 6 c28 3 81 2 118 -3 48 -6 76 -5
97 4 16 7 32 9 36 6 4 -4 78 -8 166 -9 118 -1 157 2 153 10 -5 8 -2 7 7 -1 15
-14 123 -17 115 -3 -4 5 14 7 41 5 64 -6 213 28 213 48 0 5 7 8 15 8 26 0 75
30 75 45 0 8 -7 15 -15 15 -8 0 -15 8 -15 18 0 13 2 14 9 3 5 -8 16 -11 30 -6
12 4 21 2 21 -4 0 -18 81 -1 122 25 20 13 48 26 62 30 14 3 26 10 26 15 0 5 9
9 19 9 11 0 26 7 35 15 8 8 17 15 21 15 4 0 14 7 22 16 11 11 18 12 23 4 4 -7
14 -8 31 -1 13 5 18 10 11 10 -7 1 -10 6 -7 11 4 6 10 8 15 5 13 -8 40 6 40
20 0 7 7 15 15 19 8 3 15 1 15 -4 0 -6 11 -10 25 -10 18 0 28 7 35 25 5 14 17
25 26 25 10 0 25 7 33 15 9 8 32 16 52 18 19 2 44 9 55 15 16 10 12 11 -28 12
-27 0 -48 4 -48 9 0 15 18 23 25 12 4 -7 15 -6 32 2 19 8 27 9 30 1 7 -20 63
-5 111 28 36 25 43 33 29 36 -10 2 -16 9 -14 15 5 15 50 18 58 4 4 -6 16 -1
30 12 12 11 28 21 34 21 6 0 18 9 28 20 9 11 24 20 32 20 8 0 15 5 15 11 0 5
4 8 9 5 4 -3 17 4 27 15 10 11 34 27 52 35 19 7 36 23 39 34 3 13 14 20 28 20
23 0 49 22 39 33 -4 3 1 13 10 22 15 15 16 15 16 -2 1 -17 1 -17 14 0 8 10 18
17 23 16 4 -1 12 7 17 17 9 19 70 64 87 64 5 0 9 5 9 10 0 6 8 14 18 17 23 9
43 29 35 37 -3 3 2 8 11 12 9 3 16 12 16 20 0 7 6 11 14 8 8 -3 17 3 21 15 3
11 20 29 38 40 22 14 27 21 15 21 -21 0 -24 15 -6 26 6 4 14 2 16 -4 4 -14 32
10 32 27 0 13 59 77 68 74 4 -1 19 11 34 28 15 16 23 29 17 29 -5 0 0 10 11
22 11 13 26 30 33 38 8 8 24 25 38 37 32 29 44 44 63 81 8 16 21 32 28 34 7 3
11 20 10 45 -3 39 -1 41 33 47 36 7 62 35 68 73 2 12 11 31 20 41 10 11 17 23
16 28 -5 20 14 62 29 66 19 5 97 153 95 181 -1 10 3 15 9 11 6 -4 8 1 3 15 -4
13 -1 27 8 36 9 8 13 24 10 36 -4 15 -2 20 5 15 14 -8 23 8 29 53 3 20 10 39
15 42 5 3 12 25 15 48 5 34 3 41 -12 41 -13 0 -16 5 -11 23 3 12 6 25 6 30 0
16 20 6 20 -10 1 -17 1 -17 11 0 6 10 7 31 4 47 -4 17 -3 30 2 30 11 0 30 71
37 140 3 30 8 66 11 80 5 22 4 23 -5 5 -8 -16 -10 -12 -6 20 4 50 59 142 89
151 12 3 32 16 45 27 13 12 22 16 22 8 0 -8 10 -5 26 8 15 12 35 21 44 21 10
0 20 6 23 14 3 8 24 17 46 21 23 4 41 11 41 16 0 5 9 9 19 9 11 0 23 5 26 10
4 6 10 8 15 5 5 -3 17 3 27 14 12 13 28 19 46 17 15 -2 32 3 38 10 6 8 16 14
21 14 5 0 30 9 54 21 25 11 70 24 100 29 49 8 104 29 79 30 -6 0 -11 8 -11 19
0 15 6 18 31 13 16 -3 37 -5 45 -4 39 2 160 37 208 60 30 14 60 25 68 25 8 0
14 4 14 8 0 5 19 6 43 3 49 -7 107 16 107 41 0 11 9 15 30 13 17 -1 30 -8 30
-15 0 -9 15 -13 45 -13 25 0 45 -4 45 -8 0 -5 -7 -32 -15 -60 -9 -29 -15 -58
-14 -65 1 -6 -1 -23 -5 -37 -7 -27 -14 -77 -21 -155 -2 -28 -11 -67 -20 -87
-8 -21 -15 -46 -15 -56 0 -10 -7 -34 -16 -52 -15 -28 -22 -51 -39 -122 -2 -9
-13 -50 -24 -90 -11 -40 -25 -111 -31 -158 -5 -47 -14 -110 -19 -140 -5 -30
-6 -70 -4 -87 3 -20 1 -33 -5 -33 -6 0 -11 -8 -12 -17 0 -10 -2 -124 -5 -254
-4 -211 -3 -243 14 -309 11 -41 25 -76 31 -78 5 -2 8 -8 4 -13 -3 -5 0 -24 6
-43 14 -43 21 -90 21 -143 0 -29 5 -45 16 -51 13 -8 14 -15 5 -40 -12 -34 -1
-89 25 -129 8 -12 19 -52 23 -88 4 -36 16 -78 26 -93 10 -15 19 -46 20 -69 1
-24 6 -49 11 -55 9 -12 57 -135 58 -148 0 -3 4 -11 8 -17 5 -7 6 -13 3 -13 -9
0 55 -114 80 -143 13 -15 35 -52 49 -82 14 -33 30 -55 39 -55 10 0 16 -9 16
-21 0 -12 8 -29 18 -38 9 -9 23 -28 30 -43 6 -16 19 -28 27 -28 9 0 14 -4 11
-8 -5 -8 28 -38 35 -32 5 4 61 -53 75 -76 6 -10 25 -22 43 -27 21 -5 31 -13
28 -21 -6 -14 88 -64 107 -58 6 2 8 0 3 -4 -10 -10 65 -54 97 -56 14 -1 26 -6
26 -10 0 -4 9 -8 20 -8 18 0 68 -19 114 -42 10 -5 28 -12 40 -14 25 -5 56 -11
116 -25 75 -17 143 -30 180 -34 19 -2 47 -7 63 -11 17 -4 27 -2 27 5 0 13 27
15 32 3 4 -12 58 -24 58 -14 0 5 18 4 41 -2 26 -7 42 -7 47 0 9 12 62 14 62 3
0 -5 45 -9 100 -9 80 0 102 3 106 15 5 12 19 14 74 9 43 -3 71 -1 75 5 3 6 21
11 39 11 17 0 36 4 41 9 6 4 31 14 58 21 44 12 47 15 47 46 0 24 5 34 15 34 9
0 15 -9 15 -24 0 -29 34 -41 54 -20 8 8 26 14 39 14 14 0 27 5 29 10 2 6 19
13 37 15 19 3 39 9 45 15 5 5 18 10 28 10 10 0 18 4 18 9 0 5 18 12 40 16 22
4 40 10 40 15 0 4 17 11 38 15 20 3 44 15 53 26 9 12 28 21 47 21 18 1 36 6
40 13 9 16 62 29 62 15 0 -5 10 -10 23 -10 17 0 19 2 8 9 -11 7 -9 10 10 13
13 2 23 9 22 15 -1 6 4 14 12 17 8 3 15 1 15 -4 0 -6 5 -10 10 -10 6 0 10 6
10 14 0 8 9 18 20 21 11 3 20 10 20 14 0 5 14 11 30 15 17 3 41 16 53 29 12
12 42 31 67 42 56 24 89 45 71 45 -8 0 -1 10 15 22 16 13 33 23 39 23 5 0 10
7 10 15 0 8 6 15 13 15 7 0 22 11 32 25 10 14 22 22 26 18 7 -8 23 7 40 37 6
11 22 20 35 20 22 0 49 16 49 29 0 3 -7 6 -15 6 -8 0 -15 7 -15 15 0 8 -7 15
-15 15 -8 0 -15 7 -15 15 0 10 9 14 30 12 24 -2 30 -7 30 -26 0 -19 3 -21 14
-12 10 8 15 8 18 1 2 -6 23 7 48 29 36 32 41 40 25 41 -18 0 -18 1 3 16 13 9
29 14 36 11 7 -3 23 4 37 14 16 13 19 19 9 19 -11 1 -10 4 4 15 17 13 18 15 3
15 -9 0 -17 6 -17 14 0 16 27 29 32 16 2 -5 21 0 43 10 22 11 36 19 31 20 -6
0 2 12 16 27 36 39 42 63 18 63 -11 0 -20 7 -20 15 0 8 7 15 15 15 8 0 15 7
15 16 0 12 6 15 20 11 14 -4 25 1 33 14 6 10 17 19 24 19 8 0 13 13 13 30 0
25 4 30 24 30 25 0 36 16 36 56 0 15 12 36 31 54 17 15 28 33 25 39 -4 7 -1 9
8 5 18 -7 30 20 35 80 1 4 7 6 15 3 10 -4 17 4 22 26 3 18 13 41 20 52 21 30
17 45 -12 45 -14 0 -33 7 -41 16 -15 14 -15 16 3 14 34 -4 44 0 44 15 0 8 9
15 20 15 11 0 21 5 21 10 3 20 5 26 30 90 29 70 52 157 45 168 -2 4 1 32 6 62
6 30 11 71 13 90 2 19 6 65 10 102 5 46 4 72 -3 81 -7 8 -9 17 -5 21 13 13 13
120 0 128 -9 6 -8 11 3 21 18 14 24 91 15 184 -6 53 -10 62 -27 65 -32 5 -35
28 -4 28 23 0 26 4 26 33 0 37 -39 177 -50 177 -4 0 -5 12 -3 28 4 21 2 24 -6
12 -9 -13 -11 -12 -11 3 0 10 -6 17 -12 16 -27 -3 -38 2 -38 16 0 8 8 15 19
15 16 0 17 5 10 48 -5 26 -15 70 -24 97 -9 28 -18 70 -20 95 -6 55 -19 115
-34 155 -6 17 -10 40 -9 50 3 21 -36 150 -52 175 -8 13 -10 12 -10 -2 0 -10
-4 -18 -9 -18 -13 0 -24 52 -13 59 10 6 15 26 13 49 0 6 -10 12 -21 12 -11 0
-20 7 -20 15 0 8 6 15 14 15 24 0 -8 100 -38 122 -6 4 -5 13 3 22 8 9 9 22 4
33 -13 29 -2 131 17 158 3 6 15 33 25 60 10 28 28 66 40 85 12 19 27 62 35 95
7 33 22 72 32 87 11 16 17 32 14 37 -3 5 8 36 25 70 17 34 32 68 33 76 1 8 5
17 8 21 4 3 4 12 1 19 -2 8 5 24 16 36 12 13 21 35 21 51 0 18 5 28 15 28 8 0
15 7 15 15 0 8 14 40 31 72 19 35 27 59 20 61 -20 7 -13 53 9 59 12 3 20 13
19 22 -3 32 1 41 21 41 25 0 60 38 60 66 0 12 6 27 14 34 8 6 12 19 9 28 -3 9
-3 14 2 10 8 -8 55 36 55 52 0 4 28 44 63 87 39 48 63 88 62 101 -1 11 1 19 5
17 9 -6 60 43 60 58 0 7 9 20 20 30 12 10 18 22 15 28 -8 11 14 41 24 34 4 -2
15 9 25 26 17 28 17 29 -3 29 -13 0 -21 7 -21 16 0 11 6 15 20 11 24 -6 52 17
44 37 -3 7 2 16 10 19 9 4 16 1 16 -5 0 -7 11 3 25 22 14 19 25 38 25 43 0 6
16 26 36 45 46 44 100 131 96 154 -2 10 2 19 7 19 6 1 15 2 19 3 15 2 76 78
79 99 5 28 13 35 13 11 1 -16 3 -15 15 6 8 14 14 32 15 41 0 21 26 45 32 29 5
-17 58 39 58 61 0 13 7 19 21 19 14 0 24 10 32 30 7 18 19 30 29 30 9 0 22 9
28 20 6 11 29 39 53 63 23 23 78 82 122 131 44 48 100 102 125 121 25 18 59
51 75 74 17 22 35 41 42 41 6 0 21 12 33 27 19 24 40 40 80 60 19 9 55 54 55
68 0 5 7 11 15 11 8 1 20 3 25 4 6 1 13 2 17 1 4 0 13 9 19 21 14 26 39 53 39
42 0 -4 14 5 30 21 17 16 30 39 30 52 0 14 6 23 15 23 8 0 15 -4 15 -10 0 -12
28 -1 51 19 9 9 28 25 42 36 14 11 26 27 27 36 0 9 15 22 33 29 17 6 42 16 54
20 12 5 27 21 35 37 7 15 20 28 28 28 27 1 92 34 85 44 -3 6 4 15 15 21 11 6
20 17 20 25 0 10 10 15 31 15 33 0 69 25 46 33 -6 2 9 13 35 25 38 17 46 24
41 41 -4 17 -1 21 20 21 13 0 30 7 37 15 7 8 21 15 32 15 10 0 31 13 46 29 15
15 42 33 61 40 19 6 42 18 50 26 9 8 31 27 49 41 32 26 40 55 22 84 -6 9 -5
17 2 21 22 14 -4 28 -44 24 -29 -3 -48 -12 -62 -29 -12 -13 -32 -27 -45 -31
-20 -6 -23 -4 -17 10 4 11 0 22 -11 30 -10 8 -19 18 -19 24 -1 6 -2 16 -3 21
0 6 -6 10 -12 10 -16 0 -39 26 -39 44 0 9 -8 16 -20 16 -14 0 -20 7 -20 21 0
11 -4 18 -9 14 -6 -3 -15 4 -21 15 -25 48 -41 3 -19 -57 8 -24 15 -30 30 -26
13 4 19 0 19 -11 0 -9 -8 -16 -17 -17 -11 0 -13 -3 -5 -6 6 -2 10 -9 7 -13 -3
-5 3 -18 15 -30 33 -33 25 -53 -32 -80 -29 -13 -55 -27 -58 -30 -3 -3 -36 -22
-74 -40 -72 -36 -89 -48 -132 -90 -14 -14 -30 -26 -35 -26 -5 -1 -12 -2 -16
-3 -5 0 -26 -17 -47 -36 -22 -19 -43 -35 -48 -35 -4 0 -8 -7 -8 -15 0 -8 -3
-15 -7 -16 -5 0 -21 -2 -37 -3 -18 -1 -35 -12 -48 -29 -13 -17 -36 -31 -64
-38 -24 -6 -44 -16 -44 -21 0 -5 -5 -6 -10 -3 -12 8 -60 -34 -60 -52 0 -7 -6
-13 -13 -13 -8 0 -23 -11 -36 -24 -12 -12 -39 -28 -61 -35 -22 -6 -45 -20 -52
-29 -7 -10 -28 -27 -45 -37 -18 -11 -33 -22 -33 -25 0 -4 -26 -24 -57 -46 -71
-47 -185 -145 -178 -152 2 -3 -7 -15 -20 -28 -14 -13 -25 -27 -25 -32 0 -5
-21 -29 -47 -52 -26 -23 -57 -58 -68 -77 -12 -18 -24 -31 -27 -28 -3 4 -39
-33 -79 -82 -41 -48 -86 -101 -100 -118 -45 -50 -99 -125 -99 -135 0 -5 -11
-17 -25 -26 -14 -9 -25 -22 -25 -30 0 -7 -6 -17 -13 -21 -20 -12 -107 -133
-107 -149 0 -7 -8 -19 -19 -26 -16 -12 -27 -29 -69 -104 -7 -13 -17 -24 -22
-24 -10 0 -35 -35 -96 -130 -28 -45 -74 -107 -99 -134 -37 -40 -85 -107 -100
-139 -10 -21 -26 -42 -36 -48 -11 -5 -19 -19 -19 -30 0 -11 -7 -22 -15 -25
-26 -10 -124 -154 -104 -154 5 0 9 -7 9 -15 0 -8 -6 -15 -14 -15 -8 0 -21 -9
-29 -20 -8 -11 -16 -17 -19 -14 -4 3 -9 -5 -13 -17 -11 -34 -83 -136 -100
-143 -9 -3 -24 -26 -35 -50 -10 -24 -25 -48 -32 -53 -17 -10 -63 -83 -63 -100
0 -7 -7 -18 -16 -25 -22 -17 -129 -194 -129 -212 0 -8 -4 -18 -10 -21 -5 -3
-28 -36 -50 -73 -22 -37 -51 -80 -65 -97 l-26 -30 6 31 c5 26 2 32 -14 37 -20
5 -30 27 -13 27 14 0 7 34 -11 60 -9 14 -17 30 -17 36 0 6 -9 19 -20 29 -11
10 -20 26 -20 35 0 10 -7 20 -15 24 -8 3 -20 17 -25 31 -6 15 -17 25 -30 25
-16 0 -20 6 -19 28 1 15 -9 46 -22 69 -31 54 -159 203 -174 203 -6 0 -18 11
-25 25 -9 16 -16 21 -21 14 -5 -8 -8 -8 -13 0 -4 6 -5 15 -2 19 9 14 -56 69
-101 87 -24 10 -43 23 -43 31 0 7 -10 19 -22 25 -13 6 -32 19 -43 29 -20 17
-70 38 -115 46 -13 3 -30 10 -37 16 -7 6 -13 8 -13 4 0 -4 -19 3 -42 16 -38
19 -57 21 -158 20 -63 -1 -119 -2 -125 -2 -5 -1 -42 4 -82 9 -39 6 -82 8 -95
5 -12 -3 -50 -9 -83 -14 -74 -12 -163 -39 -171 -51 -3 -5 -12 -9 -20 -9 -8 0
-37 -11 -66 -25 -28 -14 -60 -25 -70 -25 -10 0 -18 -7 -18 -16 0 -8 -4 -13 -9
-9 -5 3 -12 1 -16 -5 -3 -5 -19 -10 -36 -10 -16 0 -29 -4 -29 -8 0 -5 -25 -16
-55 -26 -30 -9 -55 -21 -55 -25 0 -5 -33 -25 -72 -45 -109 -54 -233 -134 -236
-151 -3 -13 -16 -20 -25 -12 -2 1 -12 -4 -21 -12 -15 -13 -17 -10 -14 40 l3
54 -32 3 c-18 2 -33 6 -33 10 0 12 -144 11 -152 -1 -4 -7 -14 -8 -30 -1 -38
15 -88 6 -88 -17 0 -19 -26 -27 -32 -9 -5 15 -68 -6 -100 -32 -52 -44 -72 -58
-83 -58 -14 0 -44 -35 -55 -66 -5 -13 -21 -29 -34 -34 -15 -5 -27 -20 -31 -39
-4 -17 -11 -31 -17 -31 -14 0 -45 -36 -69 -80 -11 -19 -28 -47 -40 -61 -14
-18 -21 -41 -21 -73 -1 -41 -4 -46 -24 -46 -16 0 -29 -10 -39 -30 -9 -16 -13
-30 -10 -30 4 0 -1 -10 -9 -22 -9 -12 -16 -30 -16 -39 0 -9 -8 -23 -18 -33
-11 -9 -25 -35 -31 -59 -7 -23 -24 -61 -37 -84 -13 -23 -24 -51 -24 -62 0 -11
-4 -23 -10 -26 -5 -3 -10 -19 -10 -34 0 -16 -7 -34 -15 -41 -8 -7 -15 -18 -15
-24 0 -7 -25 -11 -72 -11 -71 0 -195 -12 -208 -20 -4 -2 -33 -7 -66 -10 -77
-8 -124 -23 -124 -41 0 -16 -26 -19 -35 -4 -5 8 -11 7 -21 -1 -8 -6 -14 -9
-14 -6 0 3 -12 2 -27 -2 -16 -5 -55 -17 -88 -26 -33 -10 -70 -22 -82 -28 -11
-5 -26 -7 -31 -3 -6 3 -13 2 -17 -4 -3 -5 -16 -10 -29 -10 -30 0 -167 -48
-187 -66 -8 -8 -23 -14 -32 -14 -9 0 -17 -4 -17 -10 0 -5 -8 -10 -19 -10 -10
0 -32 -7 -47 -15 -16 -8 -37 -15 -46 -15 -10 0 -18 -4 -18 -10 0 -5 -6 -10
-13 -10 -8 0 -24 -9 -37 -20 -22 -19 -34 -24 -56 -21 -6 0 -26 -13 -45 -30
-31 -28 -67 -48 -95 -53 -5 -1 -23 -12 -38 -24 -16 -12 -34 -22 -42 -22 -7 0
-19 -3 -28 -6 -11 -4 -16 -1 -16 10 0 9 5 16 10 16 27 0 4 103 -28 123 -9 6
-10 13 -4 20 18 22 -2 97 -25 97 -8 0 -11 5 -8 11 4 6 -2 13 -14 16 -22 6 -29
29 -10 35 15 5 -10 78 -28 85 -7 3 -13 11 -13 19 0 8 -7 14 -16 14 -12 0 -15
8 -13 34 2 19 -2 40 -9 49 -7 8 -27 43 -44 78 -18 35 -40 73 -50 83 -10 11
-18 23 -18 26 0 4 -12 20 -26 36 -14 16 -32 41 -40 57 -12 21 -22 27 -49 27
-28 0 -35 4 -35 19 0 10 -6 21 -14 24 -9 4 -13 16 -11 34 3 29 -24 60 -36 41
-10 -16 -29 0 -29 25 -1 28 -29 81 -30 55 0 -26 -19 -22 -48 9 l-25 28 24 6
24 6 -27 13 c-16 7 -28 18 -28 24 0 6 -5 4 -10 -4 -9 -13 -11 -13 -20 0 -6 10
-10 11 -10 3 0 -7 -7 -13 -15 -13 -8 0 -15 7 -15 15 0 8 -7 15 -15 15 -8 0
-15 7 -15 15 0 8 -7 15 -15 15 -10 0 -15 10 -15 34 0 21 -6 36 -15 40 -8 3
-15 1 -15 -4 0 -20 -21 -9 -32 15 -6 14 -22 28 -35 31 -13 4 -23 14 -23 23 0
9 -18 28 -41 41 -22 14 -46 30 -52 35 -15 14 -57 17 -57 4 0 -23 -29 -6 -32
19 -2 22 -14 32 -68 59 -36 17 -77 33 -90 35 -14 1 -30 8 -36 13 -6 6 -31 17
-55 24 -46 14 -130 51 -139 62 -11 13 -100 60 -122 64 -12 3 -24 9 -26 15 -2
5 -12 10 -23 10 -10 0 -19 4 -19 9 0 5 -10 7 -22 4 -17 -3 -19 -2 -10 5 13 9
11 11 -50 27 -5 2 -12 3 -16 4 -5 0 -19 10 -32 21 -15 13 -31 18 -45 14 -16
-4 -30 1 -47 18 -19 19 -33 23 -75 22 -35 -1 -53 3 -53 11 0 6 -6 12 -12 12
-7 1 -28 3 -45 6 -18 2 -33 0 -33 -4 0 -15 -28 -10 -34 6 -4 11 2 15 22 16
l27 1 -30 8 c-58 17 -179 28 -193 17 -9 -7 -20 -6 -37 3 -14 7 -31 9 -42 5
-29 -13 -43 -14 -43 -4 0 5 -40 9 -89 9 -75 0 -90 -3 -95 -17 -6 -15 -9 -15
-16 -3 -6 10 -31 14 -86 15 -78 1 -104 -5 -254 -65 -30 -12 -63 -24 -72 -27
-10 -3 -18 -9 -18 -14 0 -5 -4 -9 -10 -9 -5 0 -40 -15 -77 -32 -65 -32 -68
-34 -65 -65 2 -25 -1 -33 -12 -33 -10 0 -16 9 -16 24 0 23 -2 24 -31 16 -17
-5 -42 -16 -55 -25 -13 -8 -28 -15 -34 -15 -16 0 -12 27 5 34 15 5 21 51 8 59
-5 2 -2 2 5 1 6 -2 12 3 12 11 0 8 5 15 10 15 6 0 15 12 22 28 6 15 17 41 24
59 8 17 14 36 14 42 0 6 4 19 9 29 56 108 91 184 91 195 0 8 11 30 24 50 13
19 27 50 31 68 4 18 14 39 21 47 8 7 14 28 14 47 0 19 6 35 14 38 10 4 13 18
10 49 -3 27 -1 36 4 25 7 -17 9 -17 19 5 7 13 15 33 18 46 4 12 11 22 16 22 5
0 9 14 9 30 0 17 5 30 10 30 6 0 10 13 10 29 0 17 6 31 15 35 11 4 14 13 9 31
-5 18 -2 25 9 25 8 0 20 12 26 28 6 15 22 47 37 72 30 50 57 140 43 140 -5 0
-9 7 -9 15 0 8 7 15 16 15 16 0 84 66 84 82 0 5 18 36 40 68 21 33 35 60 29
60 -6 0 -7 5 -4 10 4 6 11 8 16 5 5 -4 9 2 9 11 0 9 19 34 42 56 23 21 35 38
27 39 -8 0 -4 4 9 9 12 5 25 18 29 27 4 10 16 27 27 39 12 12 32 39 45 62 13
22 35 45 49 52 18 8 22 14 14 19 -9 5 9 29 55 76 38 38 68 74 68 80 0 5 6 10
14 10 8 0 17 8 20 18 4 10 10 18 15 17 4 0 17 12 28 27 12 15 34 42 50 59 16
17 28 35 27 40 -1 5 -1 18 1 29 1 19 2 19 9 1 6 -17 10 -14 32 20 13 21 23 44
21 50 -3 14 25 27 39 18 5 -3 12 3 16 13 4 10 36 48 72 84 108 109 191 200
191 208 0 5 10 12 23 16 13 4 17 8 10 12 -26 10 -14 33 17 33 19 0 37 8 48 22
9 11 26 30 37 42 11 12 20 26 20 31 0 6 6 11 13 11 25 3 27 4 14 13 -10 6 -8
13 11 31 13 13 28 23 33 23 26 -2 123 84 124 110 0 9 5 17 10 17 17 0 47 33
51 54 6 28 29 32 29 6 0 -21 2 -21 35 9 20 17 40 31 45 31 17 0 40 32 40 56 0
15 6 24 15 24 8 0 15 5 15 11 0 7 9 9 21 6 16 -4 31 5 60 35 21 23 39 35 39
28 0 -8 12 -2 30 15 17 16 30 35 30 42 0 7 11 13 24 13 13 0 26 3 28 8 2 4 16
17 32 30 16 12 24 22 17 22 -8 0 -8 5 1 19 7 11 15 18 18 16 4 -2 17 10 30 27
14 19 25 26 29 19 5 -8 16 -4 36 13 l28 24 -23 4 c-23 3 -23 3 -5 22 13 12 20
15 23 7 3 -8 10 -5 20 7 10 11 27 22 39 26 13 4 29 13 35 19 7 7 28 23 47 37
19 13 29 26 23 28 -9 3 -8 10 3 25 8 12 15 32 15 44 0 14 6 23 15 23 9 0 15
-9 15 -22 1 -22 1 -22 11 -4 8 12 14 15 18 7 5 -7 23 5 52 35 24 25 53 55 65
65 11 11 39 37 61 58 25 23 45 53 52 77 14 51 14 54 -4 54 -8 0 -15 5 -15 10
0 13 -7 12 -50 -3z m-70 -207 c0 -5 -5 -10 -11 -10 -5 0 -7 5 -4 10 3 6 8 10
11 10 2 0 4 -4 4 -10z m-210 -44 c0 -2 -7 -9 -15 -16 -12 -10 -15 -10 -15 4 0
9 7 16 15 16 8 0 15 -2 15 -4z m-990 -761 c0 -8 -7 -15 -15 -15 -8 0 -15 7
-15 15 0 8 7 15 15 15 8 0 15 -7 15 -15z m-190 -270 c-16 -19 -50 -20 -50 -1
0 8 12 16 28 18 35 4 38 2 22 -17z m9736 -75 c8 0 14 -7 14 -15 0 -8 -4 -15
-9 -15 -13 0 -41 47 -33 55 4 4 8 0 10 -9 2 -9 10 -16 18 -16z m-9696 10 c0
-5 -4 -10 -10 -10 -5 0 -10 5 -10 10 0 6 5 10 10 10 6 0 10 -4 10 -10z m-374
-278 c-14 -14 -16 -14 -16 -1 0 20 23 44 29 28 2 -6 -4 -18 -13 -27z m-46 -47
c0 -8 -7 -15 -15 -15 -8 0 -15 7 -15 15 0 8 7 15 15 15 8 0 15 -7 15 -15z
m9936 -15 c8 0 14 -7 14 -15 0 -10 -10 -15 -32 -14 -28 0 -30 2 -13 9 17 7 17
9 3 9 -10 1 -18 7 -18 15 0 19 24 27 28 9 2 -7 10 -13 18 -13z m-10176 -225
c0 -8 -7 -15 -15 -15 -8 0 -15 7 -15 15 0 8 7 15 15 15 8 0 15 -7 15 -15z
m9890 -31 c0 -8 -5 -12 -10 -9 -6 4 -8 11 -5 16 9 14 15 11 15 -7z m-9770 -34
c0 -5 -5 -10 -11 -10 -5 0 -7 5 -4 10 3 6 8 10 11 10 2 0 4 -4 4 -10z m9587
-36 c-3 -3 -16 -4 -29 -2 l-23 5 25 10 c23 10 41 1 27 -13z m93 -54 c0 -5 -5
-10 -11 -10 -5 0 -7 5 -4 10 3 6 8 10 11 10 2 0 4 -4 4 -10z m-267 -85 c-3 -9
-8 -14 -10 -11 -3 3 -2 9 2 15 9 16 15 13 8 -4z m-93 -65 c0 -5 -8 -10 -17
-10 -15 0 -16 2 -3 10 19 12 20 12 20 0z m-68 -62 c-7 -7 -12 -8 -12 -2 0 14
12 26 19 19 2 -3 -1 -11 -7 -17z m-10122 -923 c0 -8 -7 -15 -15 -15 -8 0 -15
7 -15 15 0 8 7 15 15 15 8 0 15 -7 15 -15z m-150 -570 c0 -8 -7 -15 -15 -15
-16 0 -20 12 -8 23 11 12 23 8 23 -8z m910 -57 c0 -10 -7 -18 -15 -18 -8 0
-15 -4 -15 -8 0 -13 78 -14 85 -2 5 8 15 6 32 -5 13 -9 30 -15 36 -12 18 7
150 -13 163 -24 20 -16 74 -29 74 -17 0 13 52 1 61 -14 4 -6 24 -12 44 -13 21
-1 40 -8 44 -14 4 -6 19 -12 34 -13 15 -1 27 -8 27 -15 0 -6 9 -15 21 -18 22
-7 22 -42 0 -37 -8 2 -39 5 -70 8 -31 3 -71 7 -90 10 -18 2 -39 -1 -47 -7 -8
-7 -19 -7 -31 -1 -10 5 -27 8 -37 6 -11 -1 -56 -5 -100 -8 -45 -3 -96 -10
-115 -15 -18 -6 -36 -10 -40 -9 -3 1 -31 -6 -61 -15 -30 -9 -82 -19 -115 -23
-33 -3 -65 -11 -72 -16 -7 -5 -17 -7 -23 -3 -5 3 -24 -3 -40 -15 -18 -13 -38
-19 -47 -16 -9 4 -19 2 -23 -4 -4 -6 -33 -18 -66 -27 -32 -9 -65 -21 -73 -27
-7 -6 -25 -12 -40 -14 -14 -1 -62 -20 -106 -42 -72 -35 -184 -85 -203 -91 -4
-2 -16 -11 -26 -21 -11 -10 -27 -18 -35 -18 -18 0 -76 -33 -98 -56 -8 -8 -21
-14 -28 -14 -22 0 -83 -43 -88 -62 -6 -20 -27 -25 -27 -6 0 6 -12 1 -27 -13
-40 -35 -87 -59 -117 -59 -31 0 -33 13 -6 42 18 20 20 20 20 4 0 -16 3 -15 19
5 10 13 22 35 26 49 4 14 13 29 20 35 14 12 55 125 58 158 1 13 10 31 20 41 9
10 17 21 17 25 0 16 61 71 85 77 14 3 22 10 19 15 -3 5 0 10 5 10 6 1 14 2 19
3 14 2 52 46 40 46 -9 0 -9 3 0 12 17 17 42 19 42 3 0 -21 37 -6 108 42 35 24
66 42 69 39 12 -12 62 29 65 53 3 27 28 42 28 17 0 -22 75 -13 111 13 14 11
48 22 75 26 27 4 59 13 71 21 25 16 73 19 73 5 0 -6 47 -10 105 -10 102 -1
105 0 105 22 0 17 2 19 10 7 8 -12 10 -12 14 3 4 9 8 25 12 34 4 15 6 15 14 3
6 -8 10 -23 10 -32z m330 -3 c0 -8 -7 -15 -15 -15 -8 0 -15 7 -15 15 0 8 7 15
15 15 8 0 15 -7 15 -15z m-300 -5 c0 -5 -5 -10 -11 -10 -5 0 -7 5 -4 10 3 6 8
10 11 10 2 0 4 -4 4 -10z m420 -14 c0 -3 -4 -8 -10 -11 -5 -3 -10 -1 -10 4 0
6 5 11 10 11 6 0 10 -2 10 -4z m5950 -21 c0 -8 -7 -15 -15 -15 -8 0 -15 7 -15
15 0 8 7 15 15 15 8 0 15 -7 15 -15z m-240 -5 c0 -5 -4 -10 -10 -10 -5 0 -10
5 -10 10 0 6 5 10 10 10 6 0 10 -4 10 -10z m-6830 -15 c0 -8 -2 -15 -4 -15 -2
0 -6 7 -10 15 -3 8 -1 15 4 15 6 0 10 -7 10 -15z m6948 -19 c67 -2 122 -1 122
3 0 4 7 8 15 8 8 0 15 -4 15 -9 0 -5 14 -7 31 -3 25 6 31 3 36 -13 5 -21 31
-37 75 -46 15 -3 30 -15 33 -26 4 -12 24 -28 45 -36 21 -9 46 -27 55 -40 8
-13 20 -24 26 -24 6 0 27 -13 46 -30 18 -16 31 -30 27 -30 -4 0 10 -16 31 -35
21 -19 42 -32 47 -29 5 3 7 0 6 -8 -2 -7 3 -12 9 -11 7 2 12 0 12 -5 -4 -24 4
-45 26 -69 57 -64 77 -90 95 -124 10 -19 26 -41 34 -48 9 -8 16 -22 16 -32 0
-22 26 -38 51 -32 13 4 19 0 19 -11 0 -9 -4 -16 -10 -16 -17 0 8 -81 29 -94 5
-3 22 -37 37 -76 15 -38 30 -67 34 -65 16 10 17 -47 2 -91 -13 -40 -18 -45
-38 -41 -23 4 -36 -17 -14 -25 5 -2 6 -9 1 -17 -7 -10 -11 -5 -16 18 -3 17
-10 31 -15 31 -4 0 -11 16 -14 35 -4 19 -11 35 -15 35 -5 0 -11 9 -14 21 -3
11 -15 23 -26 26 -11 3 -23 14 -27 25 -10 32 -114 137 -130 131 -9 -3 -18 5
-25 23 -9 28 -85 94 -106 94 -6 0 -13 7 -17 15 -3 8 -18 15 -33 15 -31 0 -57
14 -59 30 -1 5 -2 15 -3 20 0 6 -8 10 -16 10 -8 0 -23 9 -33 20 -10 11 -40 24
-67 29 -27 5 -51 14 -53 20 -2 6 -8 11 -14 11 -5 0 -17 7 -25 16 -10 9 -26 14
-41 11 -14 -3 -34 -1 -44 4 -10 5 -27 14 -38 19 -14 7 -27 7 -40 0 -31 -17
-43 -12 -38 15 6 28 -5 32 -117 40 -38 3 -104 8 -145 12 -122 10 -548 5 -609
-8 -31 -6 -74 -20 -96 -30 -22 -10 -56 -22 -75 -25 -19 -4 -48 -16 -63 -27
-16 -11 -49 -25 -73 -33 -25 -7 -56 -22 -70 -33 -14 -11 -50 -25 -80 -32 -30
-7 -54 -18 -54 -25 0 -16 -24 -24 -41 -13 -10 6 -10 9 -1 9 6 0 12 5 12 10 0
6 -13 10 -30 10 -20 0 -30 5 -30 15 0 8 7 15 15 15 8 0 15 -5 15 -11 0 -8 4
-8 13 -1 15 13 77 13 77 0 0 -6 14 2 31 16 17 14 35 27 40 27 5 1 12 2 17 3
17 4 40 24 77 69 22 26 45 47 52 47 7 0 13 4 13 9 0 5 15 16 33 25 41 21 68
38 85 54 8 7 33 22 56 34 22 11 45 27 49 34 4 8 17 14 28 14 12 0 23 8 26 19
4 14 14 19 40 19 19 0 43 8 54 18 10 9 22 14 25 11 4 -3 13 0 21 8 8 8 26 17
41 20 79 17 176 57 207 86 5 5 29 9 55 10 25 0 63 3 84 7 40 7 87 7 314 -2z
m-5648 -11 c0 -8 -7 -15 -15 -15 -8 0 -15 7 -15 15 0 8 7 15 15 15 8 0 15 -7
15 -15z m6000 -40 c-7 -9 -15 -13 -17 -11 -7 7 7 26 19 26 6 0 6 -6 -2 -15z
m1360 -100 c0 -14 -4 -25 -9 -25 -5 0 -8 11 -8 25 0 14 3 25 8 25 5 0 9 -11 9
-25z m-7695 -45 c3 -5 -1 -10 -10 -10 -9 0 -13 5 -10 10 3 6 8 10 10 10 2 0 7
-4 10 -10z m-1285 -25 c0 -8 -7 -15 -15 -15 -13 0 -14 3 -3 15 16 18 18 18 18
0z m1260 -15 c13 0 29 8 36 18 13 16 15 16 25 0 13 -22 59 -24 59 -3 0 8 4 15
9 15 5 0 28 -7 51 -15 55 -20 120 -20 120 -1 0 14 23 16 36 4 3 -4 15 -1 26 5
16 9 22 9 25 0 3 -7 12 -13 21 -13 15 0 15 -2 2 -11 -12 -9 -12 -10 3 -5 10 3
36 6 58 6 28 0 39 4 39 15 0 21 30 19 30 -2 1 -25 41 -51 87 -57 72 -8 187
-71 271 -147 27 -24 61 -53 76 -64 36 -25 66 -56 66 -67 0 -5 4 -7 9 -4 5 3
26 -16 47 -42 46 -57 74 -86 74 -75 0 4 10 -7 21 -24 12 -18 25 -33 30 -33 5
0 9 -6 9 -12 0 -7 15 -25 33 -39 17 -14 39 -39 47 -55 14 -28 62 -94 87 -121
6 -7 18 -13 25 -13 11 0 10 -2 -1 -9 -10 -7 -9 -11 6 -22 10 -8 31 -39 45 -69
14 -31 33 -61 41 -69 9 -7 14 -18 11 -25 -3 -7 2 -19 11 -26 20 -16 55 -92 55
-117 0 -11 4 -23 9 -28 9 -11 37 -90 31 -90 -2 0 3 -13 12 -30 23 -43 48 -112
48 -134 0 -11 4 -21 9 -23 5 -1 12 -28 16 -58 4 -30 11 -57 15 -60 5 -3 9 -81
9 -173 l0 -169 -32 -43 c-17 -24 -42 -48 -54 -54 -13 -6 -23 -20 -23 -31 0
-12 -4 -18 -10 -15 -5 3 -10 2 -10 -3 0 -10 -88 -111 -142 -162 -20 -19 -41
-46 -46 -60 -9 -22 -37 -62 -134 -188 -20 -25 -28 -46 -28 -76 1 -53 17 -74
54 -70 31 3 86 49 86 71 0 8 4 12 9 8 5 -3 33 18 63 46 32 31 48 54 41 56 -7
3 -13 11 -13 19 0 10 15 14 60 14 47 0 60 -3 60 -15 0 -8 -6 -15 -12 -15 -7 0
1 -8 17 -19 17 -10 35 -15 41 -10 7 5 11 -5 12 -31 2 -22 -1 -40 -6 -40 -9 0
-26 -55 -37 -120 -9 -57 -12 -67 -32 -117 -4 -10 -7 -22 -8 -28 0 -5 -16 -41
-35 -80 -18 -38 -33 -73 -32 -77 1 -5 -2 -8 -8 -8 -5 0 -10 -7 -10 -15 0 -8
-4 -15 -10 -15 -5 0 -10 -9 -10 -20 0 -10 -7 -23 -15 -28 -9 -4 -17 -19 -20
-32 -3 -13 -11 -28 -20 -32 -8 -5 -15 -18 -15 -28 0 -11 -9 -24 -20 -30 -11
-6 -20 -17 -20 -25 0 -7 -3 -15 -8 -17 -4 -1 -32 -34 -62 -73 -30 -38 -60 -76
-67 -83 -7 -7 -13 -19 -13 -25 0 -7 -10 -17 -22 -22 -12 -6 -36 -31 -52 -57
-17 -26 -41 -50 -53 -54 -17 -5 -23 -14 -23 -35 0 -19 5 -29 15 -29 8 0 15 -7
15 -15 0 -9 6 -12 15 -9 9 4 15 0 15 -10 0 -22 5 -20 34 9 14 14 23 25 21 25
-3 0 4 9 15 20 11 11 20 25 20 30 0 6 6 10 14 10 7 0 19 7 26 15 10 12 10 15
-1 15 -10 0 -10 3 -1 13 7 6 17 13 22 13 6 1 14 2 19 3 5 0 12 15 16 31 4 17
13 30 21 30 26 0 64 47 64 79 0 31 21 54 28 32 5 -15 31 17 32 38 0 8 16 33
35 57 19 23 35 46 35 50 0 4 7 12 15 18 9 6 17 24 19 39 1 15 14 40 28 56 33
36 62 97 53 110 -3 6 1 21 9 33 9 12 16 28 16 36 0 7 9 22 20 34 11 12 20 32
20 44 0 12 9 49 20 83 10 33 20 78 22 98 2 21 9 44 16 51 6 7 12 26 12 41 0
15 3 31 7 35 4 4 9 25 10 47 2 30 -1 39 -13 39 -10 0 -14 6 -10 15 3 8 1 15
-4 15 -20 0 -9 29 12 32 16 2 27 16 39 50 9 26 14 49 12 52 -3 3 7 10 23 17
63 25 76 34 90 61 8 15 18 28 23 28 13 0 2 -143 -12 -152 -6 -4 -8 -8 -4 -8 4
0 3 -8 -2 -17 -11 -23 -21 -72 -28 -145 -3 -32 -9 -58 -14 -58 -5 0 -9 -8 -9
-18 0 -11 -9 -45 -20 -76 -11 -32 -18 -61 -17 -64 2 -6 -54 -130 -84 -184 -5
-10 -9 -24 -9 -31 0 -8 -9 -22 -20 -32 -11 -10 -20 -26 -20 -36 0 -9 -4 -19
-8 -21 -11 -4 -82 -123 -82 -137 0 -6 -8 -19 -17 -29 -10 -10 -49 -58 -88
-107 -38 -48 -91 -112 -117 -140 -27 -29 -48 -56 -48 -60 0 -4 -17 -25 -37
-45 -50 -48 -161 -169 -197 -215 -17 -21 -45 -44 -63 -53 -19 -9 -33 -23 -33
-34 0 -12 -7 -18 -24 -18 -31 0 -75 -45 -69 -70 4 -15 0 -19 -24 -18 -17 1
-47 -13 -77 -33 -26 -19 -55 -38 -65 -44 -52 -31 -67 -39 -71 -38 -9 1 -89
-57 -97 -71 -4 -7 -29 -21 -55 -31 -27 -10 -48 -22 -48 -26 0 -5 -7 -9 -15 -9
-9 0 -27 -11 -40 -24 -13 -13 -39 -27 -57 -31 -18 -4 -60 -22 -93 -40 -33 -18
-71 -36 -85 -40 -14 -4 -38 -18 -53 -31 -16 -13 -33 -22 -38 -18 -5 3 -9 -1
-9 -8 0 -10 -2 -10 -9 1 -5 7 -14 10 -20 7 -6 -4 -11 -4 -11 1 0 4 15 15 33
23 24 11 28 15 14 18 -27 5 -15 26 16 29 17 1 27 -3 27 -12 0 -21 52 0 86 33
14 15 30 28 35 28 5 1 17 2 27 4 10 1 12 4 5 6 -26 11 0 34 39 34 31 0 41 4
45 19 5 21 33 37 33 19 0 -7 4 -7 13 1 8 6 17 8 20 4 4 -3 9 2 13 11 3 9 9 14
13 11 4 -2 22 9 40 25 18 17 36 30 40 30 5 0 14 7 21 15 7 8 16 13 20 10 5 -3
11 -1 15 5 4 6 10 8 15 5 4 -3 13 2 20 10 9 11 10 15 1 15 -8 0 -7 6 4 16 8 9
21 14 29 11 7 -3 19 3 27 14 7 10 19 19 26 19 7 0 13 6 13 14 0 8 16 16 40 20
37 6 40 9 46 45 6 36 8 39 40 39 39 0 84 25 84 47 0 8 7 15 15 15 8 0 15 6 15
14 0 8 10 16 23 18 12 2 22 10 22 18 0 8 3 17 6 20 7 5 12 35 10 63 -3 42 -91
7 -142 -56 -11 -15 -26 -27 -33 -27 -8 0 -33 -18 -57 -41 -24 -22 -57 -47 -74
-56 -73 -39 -145 -96 -145 -115 0 -13 -6 -18 -17 -16 -27 4 -43 -10 -43 -38 0
-26 -17 -33 -26 -9 -5 11 -16 9 -62 -16 -31 -16 -70 -40 -86 -52 -17 -13 -65
-40 -106 -62 -41 -21 -81 -45 -88 -52 -12 -12 -21 -15 -38 -12 -4 0 -10 -3
-13 -8 -3 -5 -26 -17 -51 -28 -25 -11 -52 -27 -61 -37 -10 -11 -31 -18 -52
-18 -20 0 -39 -4 -42 -10 -3 -6 -14 -10 -23 -10 -10 0 -41 -15 -70 -34 -31
-21 -54 -31 -58 -24 -10 16 -75 1 -137 -32 -36 -19 -71 -30 -96 -30 -22 0 -51
-4 -65 -10 -15 -5 -93 -11 -174 -12 -81 -1 -151 -5 -157 -9 -15 -11 -21 -10
-62 5 -34 13 -71 20 -155 32 -24 3 -28 0 -28 -21 0 -16 -6 -25 -15 -25 -9 0
-15 9 -15 22 0 24 -36 68 -56 68 -6 0 -25 7 -40 15 -16 8 -37 15 -46 15 -24 0
-69 22 -90 43 -10 9 -31 17 -47 17 -51 0 -110 43 -259 187 -30 29 -63 55 -73
58 -11 4 -19 15 -19 25 0 10 -21 40 -47 67 -27 28 -55 63 -62 79 -8 16 -24 43
-36 59 -21 31 -39 66 -49 98 -3 11 -15 21 -26 24 -11 3 -20 13 -20 23 0 10 -7
26 -16 35 -9 8 -13 22 -10 31 3 8 2 12 -4 9 -6 -3 -11 -1 -11 4 -3 23 -5 28
-23 69 -11 24 -22 38 -25 33 -4 -5 -11 1 -18 15 -6 13 -7 24 -2 24 4 0 6 7 3
15 -4 8 -12 15 -19 15 -19 0 -30 21 -17 29 8 5 8 17 3 36 -5 17 -10 22 -10 13
-1 -10 -5 -18 -9 -18 -9 0 -11 14 -18 128 -3 45 -10 82 -15 82 -5 0 -9 18 -9
40 0 36 -3 40 -32 48 -39 10 -49 32 -15 32 22 0 24 3 20 41 -2 23 -13 58 -24
78 -19 36 -28 131 -10 102 7 -11 13 -12 23 -4 10 9 13 3 13 -30 0 -31 6 -48
23 -64 13 -12 21 -27 17 -32 -3 -6 -3 -17 2 -23 4 -7 8 -16 8 -20 0 -12 45
-58 56 -58 6 0 9 -6 6 -14 -5 -13 26 -69 56 -101 20 -21 41 -49 61 -79 14 -22
20 -26 27 -15 6 10 9 11 10 2 1 -7 3 -17 4 -23 1 -5 3 -13 4 -17 1 -5 5 -3 9
4 5 8 13 9 22 3 12 -8 12 -10 -3 -16 -17 -6 -17 -7 0 -20 10 -7 37 -14 61 -14
l42 0 0 -40 c0 -30 7 -48 25 -68 l25 -27 25 27 c31 33 26 50 -31 105 -24 23
-44 47 -44 53 0 6 -6 17 -12 24 -7 7 -25 27 -41 45 -15 17 -36 31 -47 31 -15
0 -20 7 -20 29 0 38 -77 151 -102 151 -13 0 -18 -8 -18 -30 0 -30 -13 -40 -26
-19 -3 6 -1 15 6 19 7 4 9 13 6 19 -4 6 -2 11 4 11 7 0 10 7 6 15 -3 8 0 15 7
16 7 0 1 5 -13 10 -20 8 -22 12 -10 20 11 8 12 12 3 16 -7 2 -13 11 -13 20 0
8 -7 22 -16 31 -10 10 -12 18 -6 20 17 5 2 32 -18 32 -14 0 -18 11 -22 53 -6
73 -34 127 -64 127 -15 0 -24 6 -24 15 0 8 9 15 20 15 17 0 19 5 14 37 -8 50
-21 83 -34 83 -6 0 -8 15 -4 41 5 28 3 43 -5 49 -10 6 -10 16 -1 46 7 25 10
91 8 177 -1 75 1 137 6 137 4 0 6 10 2 23 -3 12 2 51 10 86 9 36 14 83 11 109
-3 27 -1 39 4 31 6 -10 9 -7 10 11 1 14 2 42 4 63 2 20 -1 37 -6 37 -15 0 -10
28 7 34 9 3 14 13 11 20 -3 8 3 24 14 37 10 12 19 30 19 40 0 10 4 20 9 23 13
8 24 66 22 109 -2 33 0 37 21 37 18 0 29 12 50 54 15 30 24 63 21 74 -4 17 1
21 24 24 22 2 32 12 48 45 11 23 25 42 32 43 6 0 21 15 33 33 13 19 19 24 16
12 -11 -46 -44 -184 -55 -228 -17 -72 -14 -135 7 -157 15 -17 23 -18 55 -9 25
7 37 16 37 28 0 9 8 26 18 37 26 28 33 52 21 72 -12 20 14 92 34 92 19 0 55
120 61 205 2 17 10 44 19 62 9 18 17 41 17 52 0 11 5 23 10 26 6 4 8 11 5 16
-4 5 1 12 10 15 13 5 14 9 4 15 -10 6 -6 14 14 33 32 30 37 31 37 11 0 -10 10
-15 31 -15 27 0 31 -3 26 -21 -4 -15 -2 -19 8 -15 8 3 15 0 17 -6 2 -6 12 1
22 16 12 19 15 37 11 57 -7 29 -19 37 -29 20 -3 -5 -17 -11 -30 -13 -18 -4
-27 1 -34 16 -13 30 5 66 35 66 12 0 23 4 23 9 0 6 13 18 30 27 20 12 26 20
18 25 -9 6 -8 10 5 15 9 3 17 15 17 25 0 20 26 26 32 8 5 -14 64 12 95 40 20
19 41 31 143 80 51 26 61 34 50 42 -13 9 -12 10 2 5 10 -3 24 2 32 10 9 8 21
14 28 13 28 -3 38 2 38 20 0 24 20 38 30 21 6 -9 13 -9 31 1 23 14 23 14 -18
17 -29 2 -43 8 -43 18 0 8 7 14 15 14 8 0 15 5 15 11 0 5 4 8 9 5 5 -4 12 0
14 6 3 8 6 6 6 -4 1 -13 9 -18 30 -18 16 0 31 -4 33 -10 3 -10 84 14 105 31 6
6 24 12 40 15 15 3 30 9 31 15 2 5 17 9 32 9 16 0 32 5 35 10 3 6 16 10 28 10
18 0 19 2 7 10 -8 5 -10 10 -5 11 6 0 30 2 54 4 24 2 48 9 52 17 5 7 9 10 9 7
0 -5 63 4 105 15 6 2 30 6 55 10 54 9 85 29 77 50 -8 20 11 32 26 17 6 -6 24
-11 39 -11 15 0 28 -3 28 -8 0 -4 18 -6 40 -4 28 3 44 10 52 25 10 19 12 19
23 4 7 -9 22 -17 35 -17z m4540 -57 c0 -16 22 -17 38 -1 9 9 13 8 17 -5 6 -14
10 -14 42 -1 32 14 37 14 54 -2 26 -24 24 -46 -9 -67 -67 -42 -109 -77 -121
-101 -8 -13 -28 -30 -45 -37 -31 -12 -166 -139 -166 -157 0 -5 -11 -15 -25
-22 -14 -7 -25 -19 -25 -27 0 -7 -6 -13 -12 -13 -19 0 -148 -135 -148 -154 0
-9 -7 -16 -15 -16 -17 0 -37 -34 -27 -45 4 -5 1 -5 -6 -1 -8 5 -18 -4 -30 -23
-9 -17 -20 -31 -24 -31 -5 0 -8 -7 -8 -15 0 -8 -4 -15 -9 -15 -9 0 -66 -79
-132 -182 -30 -47 -43 -53 -84 -42 -17 4 -21 13 -20 44 0 21 2 36 6 35 9 -6
74 128 76 159 2 17 12 39 23 51 11 12 20 28 20 37 0 23 59 138 70 138 6 0 10
11 10 24 0 14 15 39 35 60 20 21 35 47 35 60 0 14 10 30 26 41 14 9 23 19 20
22 -3 4 -1 12 5 20 9 10 8 13 0 13 -7 0 -9 5 -5 11 4 8 9 7 15 -2 7 -11 13 -9
29 11 11 14 18 31 15 38 -3 7 11 22 30 33 19 12 35 25 35 30 0 5 7 9 15 9 7 0
18 6 22 13 7 12 27 24 100 61 13 6 23 17 23 25 0 10 10 12 44 8 37 -5 45 -4
49 12 5 22 57 25 57 4z m267 -35 c-3 -8 -6 -5 -6 6 -1 11 2 17 5 13 3 -3 4
-12 1 -19z m2651 -34 c32 -9 27 -24 -8 -24 -20 0 -30 5 -30 15 0 17 4 18 38 9z
m-3248 -49 c0 -8 -7 -15 -16 -15 -14 0 -14 3 -4 15 7 8 14 15 16 15 2 0 4 -7
4 -15z m1295 -53 c94 -1 204 -3 245 -6 43 -2 80 0 88 6 8 7 12 7 12 -1 0 -6
10 -11 23 -11 13 0 55 -8 94 -19 53 -13 75 -15 83 -7 8 8 11 7 8 -4 -2 -10 4
-14 20 -12 12 2 22 -2 22 -9 0 -7 3 -10 6 -7 3 4 40 -11 82 -33 42 -21 87 -39
99 -39 13 0 33 -9 46 -20 50 -46 64 -57 105 -83 23 -15 47 -25 52 -22 6 3 10
-3 10 -14 0 -11 8 -22 18 -25 18 -6 154 -144 237 -241 28 -33 58 -67 68 -77 9
-10 17 -21 17 -25 0 -4 9 -17 21 -29 21 -22 21 -23 2 -76 -10 -29 -18 -71 -18
-93 l0 -40 45 3 c25 2 49 10 53 18 4 8 12 14 16 14 4 0 29 -42 56 -92 26 -51
56 -104 67 -117 10 -13 18 -32 18 -42 0 -10 6 -22 13 -26 16 -10 37 -58 37
-83 0 -10 7 -26 16 -34 8 -9 17 -27 20 -41 2 -14 14 -49 25 -78 12 -28 28 -72
36 -97 8 -25 20 -48 25 -51 5 -3 10 -17 11 -30 1 -13 8 -33 14 -44 18 -34 26
-104 28 -258 1 -117 4 -150 16 -158 12 -7 12 -9 0 -9 -8 0 -12 -3 -8 -6 3 -3
-1 -24 -9 -47 -8 -23 -12 -47 -10 -53 3 -7 -1 -59 -8 -116 -8 -57 -14 -110
-14 -118 -1 -23 -13 -127 -23 -200 -5 -36 -10 -73 -10 -84 0 -10 -7 -29 -16
-42 -17 -27 -28 -134 -13 -134 6 0 10 -7 10 -15 0 -8 -4 -15 -10 -15 -5 0 -10
-7 -10 -16 0 -8 -4 -13 -8 -10 -7 4 -46 -104 -45 -124 0 -3 -11 -26 -24 -51
-13 -26 -23 -58 -23 -72 0 -13 -7 -30 -15 -37 -8 -7 -13 -16 -10 -20 3 -5 1
-10 -4 -12 -11 -3 -141 -225 -141 -239 0 -5 -4 -9 -8 -9 -5 0 -15 -12 -23 -27
-8 -15 -30 -44 -50 -65 -20 -21 -42 -50 -48 -65 -7 -16 -35 -46 -63 -68 -28
-22 -68 -57 -89 -77 -22 -21 -45 -38 -52 -38 -8 0 -26 -13 -40 -30 -15 -16
-32 -31 -37 -31 -6 -1 -14 -2 -19 -3 -5 0 -13 -5 -18 -9 -4 -5 -21 -15 -38
-23 -16 -8 -52 -27 -80 -43 -60 -36 -141 -76 -172 -85 -13 -4 -23 -11 -23 -15
0 -9 -43 -29 -75 -34 -11 -2 -40 -9 -65 -16 -25 -7 -45 -12 -46 -10 0 2 -7 -1
-15 -7 -34 -28 -234 -33 -539 -14 -254 16 -265 17 -319 28 -24 6 -57 6 -72 2
-17 -5 -31 -5 -35 1 -3 5 -10 7 -15 4 -5 -4 -9 -1 -9 4 0 6 -8 11 -19 11 -10
0 -24 7 -31 15 -7 8 -19 15 -26 15 -8 0 -23 9 -35 21 -27 27 -11 45 38 40 34
-3 35 -2 29 24 -6 22 -3 28 14 32 11 3 20 11 20 18 0 13 28 30 43 27 4 -1 7 3
7 8 0 20 -55 10 -93 -17 -22 -15 -34 -29 -28 -31 6 -2 11 -10 11 -18 0 -10
-12 -14 -40 -14 -28 0 -43 -5 -47 -16 -8 -21 -74 -13 -138 16 -24 11 -47 20
-50 20 -6 0 -19 10 -49 37 -20 18 -115 73 -126 73 -5 0 -39 23 -75 50 -36 28
-73 50 -81 50 -8 0 -13 4 -9 9 3 6 -5 15 -17 22 -12 7 -29 18 -36 26 -7 7 -29
13 -48 13 -32 0 -34 2 -34 34 0 37 -17 57 -30 36 -10 -16 -33 -2 -26 16 8 20
-80 99 -109 98 -13 -1 -26 5 -29 12 -3 8 -1 14 4 14 19 0 9 25 -25 65 -44 51
-47 55 -63 85 -7 14 -29 36 -48 49 -19 13 -33 29 -30 36 2 6 -5 17 -15 23 -10
7 -19 19 -19 27 0 14 -18 53 -30 65 -3 3 -5 10 -6 15 -3 34 -19 77 -30 82 -8
3 -14 13 -14 22 0 9 -9 31 -20 49 -13 22 -18 44 -15 67 2 19 0 35 -4 35 -5 0
-12 10 -16 23 -6 19 -8 20 -12 4 -3 -10 -10 -16 -16 -14 -15 5 -21 33 -11 55
4 9 6 20 6 25 -1 4 2 7 6 7 5 0 7 14 4 30 -4 31 -16 39 -26 18 -2 -7 -3 4 0
25 4 24 0 42 -9 51 -11 12 -12 26 -4 72 7 43 6 63 -3 77 -9 16 -9 21 1 27 6 5
13 28 14 52 1 23 5 70 9 103 4 40 3 53 -3 40 -9 -18 -11 -18 -15 3 -1 4 -5 13
-10 20 -5 9 -1 15 13 19 18 5 20 10 14 45 -3 23 -2 43 4 47 14 9 26 61 13 61
-5 0 -10 7 -10 15 0 8 5 15 11 15 6 0 8 12 5 33 -5 24 -4 27 3 12 11 -22 11
-21 17 49 3 27 9 57 15 68 7 12 8 43 4 79 -6 51 -5 59 10 59 13 0 15 6 10 30
-4 19 -3 30 4 30 15 0 48 77 54 125 3 22 11 54 18 70 7 17 13 35 14 40 0 6 4
16 8 23 5 7 4 12 -2 12 -16 0 -9 24 9 31 8 3 15 20 16 38 1 18 5 35 9 39 10
10 118 9 132 -1 7 -5 22 -7 35 -5 21 3 23 8 23 63 l0 60 -47 10 c-27 5 -48 13
-48 18 0 4 0 14 0 22 0 9 16 25 35 36 25 15 35 28 35 45 0 13 5 24 10 24 6 0
10 8 11 18 0 15 1 14 8 -3 7 -17 8 -17 15 8 5 21 1 35 -14 54 -24 31 -25 40
-5 59 12 12 15 12 15 2 1 -8 6 -6 15 6 10 13 15 15 15 6 0 -7 3 -10 8 -6 4 4
7 11 7 15 0 4 14 20 30 34 23 21 26 26 13 27 -20 0 -24 15 -8 25 6 3 10 1 10
-5 0 -7 6 -5 15 4 8 8 15 19 15 25 0 5 9 13 21 16 11 4 27 22 35 40 15 36 34
55 34 34 0 -7 7 -4 15 7 19 25 19 34 -1 34 -14 0 -14 2 -3 16 9 11 15 12 17 5
3 -9 7 -9 18 0 11 9 14 8 14 -2 0 -7 16 2 35 21 23 23 33 40 29 52 -4 13 2 19
20 24 14 3 26 10 26 16 0 5 4 7 9 4 4 -3 23 13 41 34 19 22 39 40 46 40 7 0
35 21 62 48 27 26 59 54 72 62 12 8 33 23 45 33 13 9 30 17 38 17 8 0 20 7 27
15 7 8 18 15 24 14 27 -3 44 2 66 21 13 11 29 20 36 20 7 0 17 8 23 18 5 9 13
16 18 15 17 -4 112 29 133 47 12 10 36 22 53 26 18 3 36 9 41 12 5 3 39 4 77
3 39 -1 70 2 74 8 4 7 13 8 23 2 9 -4 94 -9 187 -9z m88 11 c-7 -2 -19 -2 -25
0 -7 3 -2 5 12 5 14 0 19 -2 13 -5z m-1512 -42 c7 11 9 10 9 -3 0 -10 -7 -18
-15 -18 -8 0 -15 8 -14 18 0 12 2 13 6 3 5 -11 7 -11 14 0z m2049 -11 c0 -13
-5 -18 -15 -14 -8 4 -15 12 -15 20 0 8 7 14 15 14 8 0 15 -9 15 -20z m-7750
-57 c0 -16 -7 -41 -15 -57 -8 -15 -15 -36 -15 -45 0 -9 -4 -21 -9 -26 -5 -6
-14 -27 -21 -47 -6 -21 -15 -38 -20 -38 -9 0 -28 -44 -34 -82 -2 -14 -9 -35
-15 -46 -16 -30 -84 -80 -104 -76 -11 1 -16 0 -13 -3 3 -4 0 -13 -7 -21 -9
-13 -9 -14 0 -8 9 5 11 2 7 -8 -8 -21 -39 -29 -79 -22 -27 5 -33 11 -31 29 2
12 8 32 14 44 7 12 12 32 12 45 0 14 8 27 22 33 12 6 26 19 32 30 6 10 21 28
34 38 21 18 89 109 84 115 -1 1 1 3 6 4 12 4 48 51 63 83 8 17 19 30 24 30 19
0 35 16 35 36 0 10 7 19 15 19 10 0 15 -10 15 -27z m5677 -40 c-3 -3 -11 -2
-17 2 -9 6 -9 10 1 16 14 8 27 -7 16 -18z m-2827 -23 c0 -20 -5 -30 -15 -30
-10 0 -15 10 -15 30 0 20 5 30 15 30 10 0 15 -10 15 -30z m66 15 c16 -8 43
-28 59 -45 17 -18 45 -38 63 -45 17 -8 32 -19 32 -25 0 -6 4 -9 9 -6 5 3 11
-8 15 -24 4 -20 14 -34 31 -40 14 -5 25 -15 25 -23 0 -7 25 -40 55 -72 30 -33
55 -63 55 -68 0 -4 16 -23 35 -41 19 -19 35 -38 35 -42 0 -4 11 -19 24 -33 13
-15 26 -35 28 -46 1 -10 10 -27 18 -36 33 -37 49 -63 55 -90 4 -16 10 -29 15
-29 5 0 19 -22 31 -50 12 -27 26 -50 31 -50 4 0 8 -7 8 -15 0 -8 7 -15 15 -15
8 0 15 -7 15 -15 0 -8 -4 -15 -10 -15 -10 0 -9 -20 3 -50 34 -90 50 -145 59
-209 15 -108 12 -143 -14 -164 -13 -9 -43 -34 -67 -55 -24 -20 -48 -37 -52
-36 -28 3 -29 4 -19 23 7 13 6 36 -2 73 -7 29 -12 83 -13 120 0 38 -4 66 -10
65 -5 -1 -11 21 -11 48 -1 30 -10 66 -23 90 -11 22 -21 43 -21 48 0 5 -6 15
-14 23 -11 10 -15 11 -19 1 -2 -6 -6 3 -9 21 -2 17 -1 32 4 32 4 0 8 -7 8 -15
0 -8 4 -15 10 -15 13 0 0 32 -22 51 -11 10 -18 30 -18 52 0 32 -34 124 -51
137 -4 3 -14 22 -22 43 -9 20 -23 40 -32 43 -8 3 -15 12 -15 19 0 7 -9 15 -20
18 -14 3 -20 14 -20 31 0 14 -5 26 -11 26 -7 0 -9 11 -5 28 3 15 3 21 0 15 -3
-7 -19 -13 -35 -13 -41 0 -39 28 3 32 28 3 30 5 17 18 -8 8 -20 27 -28 43 -9
17 -17 23 -22 16 -4 -7 -10 1 -14 20 -4 17 -10 29 -15 26 -5 -3 -17 8 -26 25
-10 16 -22 30 -26 30 -4 0 -8 8 -8 17 0 25 -80 103 -106 103 -12 0 -24 7 -28
15 -3 8 0 15 6 15 7 0 6 5 -2 15 -17 20 6 20 46 0z m-3066 -60 c0 -8 -7 -15
-15 -15 -8 0 -15 7 -15 15 0 8 7 15 15 15 8 0 15 -7 15 -15z m3060 -30 c0 -8
-7 -15 -15 -15 -8 0 -15 7 -15 15 0 8 7 15 15 15 8 0 15 -7 15 -15z m5920 0
c0 -8 -7 -15 -15 -15 -8 0 -15 7 -15 15 0 8 7 15 15 15 8 0 15 -7 15 -15z
m-2765 -14 c-3 -6 -11 -11 -17 -11 -6 0 -6 6 2 15 14 17 26 13 15 -4z m-6405
-25 c0 -35 -25 -40 -27 -5 -2 20 3 29 12 29 9 0 15 -10 15 -24z m6308 -67
c-18 -12 -23 17 -6 38 12 15 13 14 16 -7 2 -12 -2 -27 -10 -31z m2232 36 c0
-8 -7 -15 -15 -15 -8 0 -15 7 -15 15 0 8 7 15 15 15 8 0 15 -7 15 -15z m600
-44 c0 -5 -7 -14 -15 -21 -13 -10 -15 -9 -15 9 0 12 6 21 15 21 8 0 15 -4 15
-9z m30 -36 c0 -8 -7 -15 -15 -15 -9 0 -12 6 -9 15 4 8 10 15 15 15 5 0 9 -7
9 -15z m80 -15 c0 -5 -2 -10 -4 -10 -3 0 -8 5 -11 10 -3 6 -1 10 4 10 6 0 11
-4 11 -10z m-32 -77 c-12 -32 -28 -67 -35 -78 -12 -18 -13 -16 -13 22 0 33 4
42 21 46 12 3 19 11 16 19 -4 11 19 48 29 48 2 0 -6 -26 -18 -57z m-3060 -14
c-18 -12 -23 8 -6 28 12 15 13 15 16 -2 2 -10 -2 -21 -10 -26z m2832 -130 c0
-37 -1 -39 -16 -25 -8 9 -12 20 -9 26 3 5 1 10 -4 10 -6 0 -11 7 -11 15 0 8 9
15 20 15 17 0 20 -7 20 -41z m-3210 1 c0 -16 -4 -30 -9 -30 -8 0 -9 43 -2 58
5 11 11 -3 11 -28z m3150 20 c0 -5 -7 -7 -15 -4 -8 4 -15 8 -15 10 0 2 7 4 15
4 8 0 15 -4 15 -10z m-8892 -22 c-6 -18 -28 -21 -28 -4 0 9 7 16 16 16 9 0 14
-5 12 -12z m-151 -88 c3 -11 12 -20 20 -20 10 0 13 -11 11 -42 -4 -49 -28 -66
-28 -19 0 21 -5 31 -15 31 -10 0 -15 -10 -15 -28 0 -19 -5 -29 -15 -29 -8 0
-15 9 -15 21 -1 21 -1 21 -15 2 -8 -11 -15 -28 -15 -37 0 -10 -3 -19 -7 -21
-5 -1 -18 -22 -31 -45 -19 -36 -21 -43 -8 -43 9 0 16 7 16 15 0 8 7 15 15 15
8 0 15 -7 15 -15 0 -8 5 -15 10 -15 6 0 4 -13 -5 -30 -17 -32 -35 -40 -35 -15
0 8 -7 15 -15 15 -8 0 -15 5 -15 12 0 21 -11 1 -15 -28 -10 -65 -17 -91 -37
-134 -24 -49 -25 -51 -33 -130 -3 -30 -8 -68 -11 -85 -3 -16 -8 -48 -10 -70
-3 -22 -9 -42 -13 -45 -4 -3 -8 -18 -8 -35 -1 -16 -4 -91 -7 -165 -4 -74 -9
-175 -13 -225 -3 -49 -5 -119 -5 -155 0 -36 1 -87 0 -115 0 -59 0 -50 6 -145
3 -40 8 -90 11 -110 3 -19 10 -66 16 -105 5 -38 10 -94 11 -122 1 -29 5 -53 9
-53 5 0 9 -8 9 -19 0 -10 7 -32 15 -47 10 -20 15 -23 15 -11 0 9 7 17 15 17
20 0 19 -20 -2 -37 -11 -8 -12 -11 -3 -7 12 6 13 5 4 -7 -13 -15 -9 -90 5 -99
5 -3 11 -27 15 -55 4 -27 15 -66 25 -85 10 -19 21 -52 25 -73 8 -43 36 -98 67
-130 12 -12 27 -36 35 -54 10 -24 18 -30 34 -26 14 4 20 0 20 -11 0 -10 -8
-16 -21 -16 -18 0 -19 -2 -9 -15 7 -8 9 -15 5 -15 -3 0 2 -15 13 -32 11 -18
32 -57 47 -85 14 -29 30 -53 35 -53 5 0 11 -8 15 -19 3 -10 14 -29 25 -42 30
-36 34 -42 54 -74 28 -44 68 -82 91 -87 11 -2 19 -10 17 -17 -4 -17 105 -124
118 -116 6 3 10 2 10 -4 0 -6 6 -8 14 -5 11 4 13 0 9 -14 -3 -15 3 -26 24 -39
15 -10 37 -26 47 -35 22 -20 120 -59 153 -62 12 0 21 -5 20 -11 -1 -5 34 -23
78 -41 44 -17 96 -38 115 -47 52 -22 103 -37 130 -37 14 -1 46 -2 73 -4 26 -1
47 1 47 6 0 4 -7 8 -15 8 -8 0 -15 4 -15 9 0 5 14 4 30 -2 17 -6 30 -16 30
-22 0 -6 19 -12 42 -14 23 -1 46 -5 52 -8 6 -3 8 -3 4 2 -4 4 4 14 18 22 33
16 34 16 34 -1 0 -33 165 -40 178 -7 9 21 32 25 32 6 0 -17 17 -18 80 -4 25 5
60 12 79 15 19 3 46 13 60 23 14 10 28 18 31 18 3 -1 35 5 73 12 64 14 67 16
67 43 0 24 4 28 29 28 30 0 45 -19 35 -45 -4 -8 -17 -15 -29 -15 -13 0 -27 -5
-30 -11 -7 -10 -47 -29 -72 -35 -7 -1 -27 -10 -45 -19 -41 -21 -205 -86 -227
-90 -9 -2 -16 -4 -16 -5 0 -1 -85 -2 -190 -3 -104 -1 -195 -5 -202 -10 -6 -4
-47 -4 -90 -1 -43 4 -154 7 -248 8 l-170 1 3 -22 c3 -18 -2 -23 -17 -23 -17 0
-21 6 -21 35 0 21 -5 36 -12 37 -7 0 -18 2 -24 2 -6 1 -22 9 -37 19 -14 9 -34
17 -44 17 -10 0 -40 11 -68 23 -27 13 -55 22 -62 20 -6 -2 -20 4 -31 14 -46
44 -85 73 -97 73 -7 0 -18 7 -25 15 -7 8 -20 15 -30 15 -10 0 -20 7 -24 15 -3
8 -10 15 -16 15 -5 0 -10 -7 -10 -15 0 -8 -7 -15 -15 -15 -8 0 -15 6 -15 13 0
8 -4 7 -11 -3 -9 -12 -10 -11 -6 8 3 12 1 22 -4 22 -18 0 -8 19 11 22 17 2 10
12 -38 53 -32 28 -72 67 -88 87 -16 20 -37 37 -46 38 -11 0 -18 10 -20 27 -2
22 -9 29 -30 31 -30 4 -48 32 -20 32 13 0 14 2 4 9 -7 4 -12 12 -10 17 5 16
-55 95 -68 90 -8 -3 -11 0 -8 8 7 17 -44 116 -60 116 -16 0 -41 45 -32 58 3 6
0 16 -7 24 -8 7 -17 26 -21 41 -3 15 -11 27 -16 27 -6 0 -10 7 -10 15 0 9 -9
15 -24 15 -13 0 -26 7 -30 15 -4 10 1 15 14 15 24 0 24 1 6 43 -17 41 -56 78
-56 54 0 -9 -5 -19 -12 -23 -7 -4 -8 -3 -4 4 4 7 2 12 -3 12 -6 0 -11 7 -11
15 0 8 6 15 14 15 8 0 14 11 14 28 1 32 -17 82 -29 82 -5 0 -6 7 -2 15 3 9 -2
21 -11 28 -13 10 -17 28 -17 80 0 47 -4 67 -13 67 -8 0 -13 16 -13 46 -1 61
-22 134 -39 134 -8 0 -14 7 -14 15 0 8 5 15 10 15 15 0 7 198 -8 227 -16 29
-15 70 1 75 15 6 24 208 9 208 -5 0 0 25 11 56 13 36 17 58 10 62 -6 4 -8 16
-6 27 2 11 5 36 8 55 10 75 14 93 24 103 6 6 11 21 11 33 0 12 5 24 10 26 10
3 28 98 32 168 1 14 10 36 20 49 25 33 24 81 -2 81 -20 0 -25 15 -14 44 8 20
24 21 24 1 0 -8 6 -15 14 -15 8 0 16 -6 19 -12 2 -7 7 2 11 20 4 17 12 32 17
32 5 0 9 9 9 19 0 11 5 23 10 26 6 3 10 21 10 40 0 44 18 82 41 88 10 3 22 13
25 24 3 10 10 26 15 35 5 10 9 23 9 30 0 6 6 19 14 27 23 26 85 151 75 151 -5
0 0 10 11 22 11 12 18 28 16 35 -3 7 -1 15 5 18 5 4 7 10 4 14 -2 5 2 17 10
27 8 10 15 29 15 42 0 15 6 22 19 22 10 0 21 7 25 15 3 8 1 15 -4 15 -6 0 -10
13 -10 29 0 26 4 30 33 34 17 2 36 5 40 5 5 1 11 -7 14 -18z m8948 -160 c3 -5
-1 -10 -10 -10 -9 0 -13 5 -10 10 3 6 8 10 10 10 2 0 7 -4 10 -10z m-5195 -25
c0 -8 -2 -15 -4 -15 -2 0 -6 7 -10 15 -3 8 -1 15 4 15 6 0 10 -7 10 -15z
m1650 -23 c0 -22 -32 -62 -49 -62 -6 0 -11 -4 -11 -10 0 -5 -8 -10 -18 -10
-21 0 -98 -35 -106 -49 -3 -5 -14 -7 -24 -4 -10 2 -46 0 -81 -6 -48 -8 -69
-17 -89 -38 -16 -17 -36 -28 -56 -29 -39 -2 -135 -63 -135 -86 -1 -21 -12 -23
-29 -6 -7 7 -12 8 -12 2 0 -10 -17 -19 -107 -56 -18 -7 -33 -16 -33 -20 0 -4
-19 -12 -42 -18 -24 -6 -62 -25 -85 -41 -24 -17 -65 -37 -92 -45 -27 -8 -54
-21 -61 -29 -7 -8 -18 -15 -24 -15 -6 0 -31 -21 -55 -45 -50 -50 -93 -62 -84
-22 3 16 2 18 -5 8 -5 -7 -12 -9 -15 -5 -7 13 4 74 14 74 5 0 9 9 9 20 0 12
10 25 25 32 16 7 25 19 25 35 0 20 5 23 36 23 23 0 65 16 120 45 46 25 88 45
94 45 6 0 18 7 26 15 11 11 12 15 3 15 -7 0 -4 6 7 15 10 8 31 15 47 15 23 0
27 4 27 30 0 20 -5 30 -15 30 -8 0 -15 7 -15 15 0 8 7 15 15 15 8 0 15 -7 15
-15 0 -8 6 -15 14 -15 7 0 16 -9 19 -20 3 -14 11 -18 28 -15 12 3 25 9 29 15
4 6 18 13 32 15 14 3 39 12 54 20 l29 15 -25 1 -25 1 25 7 c15 4 28 3 33 -3 5
-7 12 -5 21 7 7 9 18 17 25 17 6 0 11 7 11 15 0 16 26 21 32 6 6 -16 56 0 61
20 7 25 27 24 27 -1 0 -17 3 -18 25 -8 13 6 21 16 18 22 -4 6 0 5 9 -2 12 -10
21 -9 44 3 16 8 41 15 57 15 15 0 27 4 27 9 0 4 28 11 63 14 67 6 117 25 117
45 0 6 7 12 15 12 8 0 15 -8 15 -18z m-503 -64 c-3 -8 -6 -5 -6 6 -1 11 2 17
5 13 3 -3 4 -12 1 -19z m20 0 c-3 -8 -6 -5 -6 6 -1 11 2 17 5 13 3 -3 4 -12 1
-19z m641 10 c7 -7 12 -8 12 -3 0 5 6 0 14 -10 13 -18 14 -18 20 3 4 12 14 22
22 22 19 0 19 -56 0 -102 -14 -33 -16 -34 -101 -46 -74 -11 -161 -29 -227 -48
-33 -10 -21 33 12 45 32 11 41 31 14 31 -14 0 -14 2 1 17 13 13 19 13 25 3 6
-10 9 -10 13 1 3 8 6 4 6 -9 1 -19 5 -22 24 -17 12 4 27 13 32 19 18 22 59 40
104 46 52 6 69 30 22 30 -21 0 -31 5 -31 15 0 18 21 20 38 3z m256 -3 c-4 -8
-11 -15 -16 -15 -6 0 -5 6 2 15 7 8 14 15 16 15 2 0 1 -7 -2 -15z m-35 -70
c-21 -36 -47 -60 -36 -34 19 47 33 69 44 69 8 0 5 -12 -8 -35z m-39 14 c0 -5
-9 -9 -19 -9 -11 0 -22 4 -25 9 -3 5 6 9 19 9 14 0 25 -4 25 -9z m-490 -34 c0
-8 -7 -15 -15 -15 -8 0 -15 7 -15 15 0 8 7 15 15 15 8 0 15 -7 15 -15z m-1383
-47 c-3 -8 -6 -5 -6 6 -1 11 2 17 5 13 3 -3 4 -12 1 -19z m1323 -43 c0 -14
-12 -19 -32 -16 -5 0 -8 -3 -8 -9 0 -5 -5 -10 -12 -10 -6 0 -23 -10 -36 -22
-17 -16 -26 -19 -29 -10 -3 6 -11 12 -19 12 -17 0 -19 36 -1 43 6 2 21 1 32
-4 29 -11 57 -11 50 1 -10 15 1 25 29 28 17 1 26 -3 26 -13z m360 0 c0 -8 -7
-15 -15 -15 -8 0 -15 7 -15 15 0 8 7 15 15 15 8 0 15 -7 15 -15z m-1683 -47
c-3 -8 -6 -5 -6 6 -1 11 2 17 5 13 3 -3 4 -12 1 -19z m783 -135 c0 -7 -7 -13
-15 -13 -8 0 -15 6 -15 13 0 8 7 14 15 14 8 0 15 -6 15 -14z m-4770 -63 c0
-11 -7 -20 -15 -20 -27 0 -18 30 13 39 1 1 2 -8 2 -19z m4200 -40 c0 -25 -4
-30 -25 -30 -14 0 -25 4 -25 10 0 5 6 7 14 4 10 -4 12 2 9 20 -4 19 -1 26 11
26 11 0 16 -9 16 -30z m1616 -54 c-4 -17 -11 -35 -18 -41 -8 -7 -9 -6 -4 3 4
7 1 12 -8 12 -11 0 -16 9 -16 30 0 26 3 29 26 28 23 -2 25 -6 20 -32z m-1611
-90 c-9 -51 -11 -54 -85 -105 -85 -58 -89 -56 -69 25 8 30 17 44 28 44 21 0
41 19 35 34 -5 12 75 54 89 48 5 -2 5 -23 2 -46z m63 31 c4 -20 -25 -34 -40
-19 -15 15 -1 44 19 40 10 -2 19 -11 21 -21z m1499 -86 c-11 -41 -29 -49 -20
-8 5 19 21 47 28 47 1 0 -3 -18 -8 -39z m-5910 -73 c-3 -8 -6 -5 -6 6 -1 11 2
17 5 13 3 -3 4 -12 1 -19z m5886 -75 c-8 -48 -15 -99 -16 -113 -1 -14 -5 -29
-8 -35 -7 -11 -16 -65 -25 -155 -4 -30 -7 -142 -8 -249 -1 -147 2 -195 12
-198 14 -5 16 -59 3 -68 -13 -7 -2 -97 12 -110 7 -5 13 -27 15 -49 2 -21 10
-45 18 -53 8 -8 15 -28 15 -44 2 -34 2 -35 17 -72 7 -16 18 -35 26 -42 7 -8
16 -32 20 -53 6 -39 52 -121 95 -171 12 -13 21 -30 21 -38 0 -7 4 -13 10 -13
5 0 21 -22 35 -50 14 -27 30 -50 36 -50 5 0 8 -4 5 -8 -3 -5 8 -22 24 -37 17
-16 30 -34 30 -39 1 -18 110 -130 110 -112 0 9 5 16 11 16 5 0 7 -4 4 -10 -3
-5 6 -12 20 -16 26 -6 34 -29 13 -37 -7 -2 6 -10 30 -17 23 -7 42 -17 42 -22
0 -12 52 -80 57 -74 2 2 25 -16 50 -40 25 -24 49 -44 54 -44 5 0 21 -13 36
-29 33 -34 100 -71 128 -71 11 0 32 -10 45 -22 38 -34 88 -68 100 -68 5 0 10
-13 10 -30 0 -32 -23 -42 -34 -15 -3 10 -19 15 -46 15 -22 0 -40 4 -40 9 0 5
-26 11 -57 13 -44 4 -60 2 -66 -9 -8 -13 -11 -13 -25 0 -10 8 -41 17 -69 20
-29 3 -68 13 -85 22 -18 9 -42 18 -53 21 -11 2 -49 18 -84 35 -40 20 -66 28
-70 21 -4 -7 -12 -6 -24 3 -13 9 -14 14 -5 17 7 3 3 7 -10 10 -12 4 -22 2 -22
-3 0 -4 -7 -6 -15 -3 -8 4 -15 15 -15 25 0 12 -14 28 -34 40 -19 11 -37 30
-41 42 -4 13 -8 17 -11 10 -7 -16 -22 -2 -43 38 -9 19 -19 25 -33 21 -16 -4
-19 -1 -16 14 2 10 -6 29 -17 40 -11 12 -27 31 -35 43 -8 11 -20 21 -27 21 -7
0 -13 11 -13 25 0 25 -31 65 -50 65 -6 0 -8 15 -6 34 3 20 -1 42 -10 53 -7 10
-14 26 -14 35 0 9 -5 18 -11 20 -6 2 -13 16 -14 31 -2 15 -11 34 -20 43 -12
12 -13 19 -5 24 8 5 8 11 -3 21 -12 12 -24 74 -32 159 -1 14 -3 33 -3 43 -1 9
-9 17 -18 17 -13 0 -15 6 -9 28 3 15 11 29 16 30 15 6 10 32 -6 32 -8 0 -15 7
-15 15 0 8 4 15 8 15 20 0 32 101 36 313 2 125 0 227 -4 227 -4 0 -4 17 1 38
12 51 11 112 -1 112 -5 0 -10 14 -10 30 0 17 5 30 10 30 6 0 10 -12 10 -27 0
-51 20 -2 21 52 2 114 8 182 18 210 21 59 55 180 53 188 -2 5 1 6 6 3 5 -3 3
-45 -5 -93z m-6196 -135 c-3 -8 -6 -5 -6 6 -1 11 2 17 5 13 3 -3 4 -12 1 -19z
m4195 -40 c-7 -7 -12 -21 -12 -32 0 -10 -3 -17 -6 -13 -10 10 5 57 18 57 9 0
9 -3 0 -12z m-52 -33 c0 -8 -7 -15 -15 -15 -16 0 -20 12 -8 23 11 12 23 8 23
-8z m1960 -50 c0 -8 -4 -15 -10 -15 -5 0 -7 7 -4 15 4 8 8 15 10 15 2 0 4 -7
4 -15z m3987 -7 c8 -133 16 -208 23 -235 5 -18 5 -35 0 -38 -4 -3 -8 -49 -9
-103 -1 -55 -4 -110 -6 -123 -2 -13 -7 -60 -10 -104 -8 -118 -43 -346 -55
-360 -15 -18 -40 -94 -41 -129 -2 -30 -96 -238 -111 -244 -5 -2 -8 -15 -8 -28
0 -13 -4 -24 -10 -24 -5 0 -10 -6 -10 -14 0 -8 -6 -16 -14 -19 -8 -3 -26 -31
-41 -61 -15 -31 -31 -56 -36 -56 -5 0 -9 -5 -9 -12 0 -12 -15 -30 -64 -76 -16
-15 -35 -42 -42 -59 -8 -18 -21 -33 -29 -33 -8 0 -20 -11 -27 -25 -11 -19 -80
-83 -133 -123 -5 -4 -39 -32 -75 -63 -36 -31 -74 -59 -86 -63 -11 -3 -29 -14
-40 -24 -10 -9 -33 -26 -50 -37 -18 -11 -64 -49 -103 -85 -40 -36 -77 -65 -84
-66 -48 -3 -134 -65 -129 -94 2 -15 -3 -19 -27 -18 -16 1 -46 -7 -65 -16 -20
-9 -55 -20 -79 -24 -36 -7 -42 -11 -39 -30 2 -15 -2 -22 -12 -22 -10 0 -16 9
-16 23 -1 19 -2 20 -13 7 -7 -8 -25 -17 -42 -19 -16 -1 -42 -9 -57 -17 -15 -8
-36 -14 -48 -14 -11 0 -20 -4 -20 -10 0 -5 -8 -10 -18 -10 -10 0 -26 -6 -37
-14 -11 -7 -27 -13 -35 -13 -9 0 -39 -11 -68 -26 -28 -14 -52 -24 -52 -21 0 2
-9 0 -21 -7 -12 -6 -50 -15 -85 -20 -36 -5 -75 -16 -87 -24 -26 -17 -150 -33
-336 -44 -140 -8 -144 -8 -276 8 -44 6 -102 13 -130 16 -59 7 -169 30 -241 49
-29 8 -65 16 -80 18 -16 1 -35 9 -42 16 -7 6 -22 12 -32 12 -10 0 -21 4 -25
10 -3 5 -12 7 -20 4 -8 -3 -33 8 -57 24 -24 16 -61 37 -82 46 -22 9 -46 25
-53 36 -8 11 -20 20 -26 20 -7 0 -28 17 -47 38 -19 20 -38 36 -42 35 -4 -2 -8
2 -8 8 0 5 -5 7 -12 3 -8 -5 -9 -2 -5 9 4 11 -3 23 -20 37 -36 28 -43 25 -43
-20 0 -29 -4 -40 -15 -40 -11 0 -15 12 -15 45 0 35 4 45 16 45 12 0 14 3 6 13
-6 6 -11 15 -11 20 -1 4 -4 7 -7 6 -3 0 -14 10 -25 23 -10 13 -23 29 -29 36
-6 6 -8 12 -5 12 11 0 -27 64 -49 82 -11 9 -16 17 -9 18 18 0 -25 70 -44 70
-8 0 -11 5 -8 10 9 15 -16 83 -39 101 -13 11 -20 32 -22 60 -1 24 -5 51 -7 59
-3 8 -8 25 -12 37 -4 13 -13 23 -19 23 -15 0 -42 47 -33 56 10 10 33 -13 52
-51 9 -19 20 -35 26 -35 5 0 42 -34 82 -75 56 -58 79 -75 101 -75 15 0 25 -4
21 -10 -3 -5 0 -10 7 -10 10 0 10 -2 -1 -9 -18 -12 23 -41 50 -34 13 4 19 0
19 -11 0 -9 15 -25 33 -36 17 -10 37 -23 43 -29 17 -14 122 -43 133 -37 5 4
12 2 16 -3 3 -6 12 -8 20 -5 8 3 27 -6 42 -20 29 -27 59 -35 128 -36 22 -1 96
-2 165 -3 114 -3 156 3 170 23 8 12 82 22 75 10 -4 -6 7 -10 27 -10 18 0 55
-7 83 -15 27 -9 55 -13 62 -11 7 3 13 0 14 -7 0 -9 2 -9 6 1 8 19 33 14 33 -8
0 -29 37 -43 120 -46 41 -1 82 -4 90 -7 81 -26 300 -45 300 -26 0 13 28 11 32
-2 2 -6 50 -13 121 -16 103 -5 117 -3 117 11 0 19 56 23 62 4 3 -8 33 -14 86
-16 65 -3 85 -1 97 12 9 9 12 16 6 16 -6 0 -11 7 -11 15 0 8 7 15 15 15 8 0
15 -7 15 -16 0 -14 7 -15 43 -10 23 4 44 11 45 16 2 6 21 10 42 10 21 0 43 6
50 15 7 9 15 13 18 11 2 -3 19 5 36 18 17 13 37 21 43 19 7 -3 16 2 19 11 3 9
17 16 30 16 14 0 27 7 30 15 4 8 17 15 31 15 13 0 31 7 39 15 11 10 11 15 3
15 -6 0 0 9 14 20 20 16 30 18 52 10 15 -6 24 -6 20 -1 -3 5 3 12 14 16 10 3
29 14 41 25 12 11 26 18 29 15 4 -2 5 12 3 31 -3 26 0 34 11 34 8 0 22 3 31 6
10 4 16 1 16 -10 0 -9 6 -13 15 -10 8 3 14 9 13 12 -4 32 4 62 17 62 8 0 15
-5 15 -11 0 -8 5 -8 15 1 10 8 15 9 15 2 0 -6 7 -9 15 -6 8 4 12 11 8 18 -3 6
-3 8 2 4 8 -8 64 21 66 34 1 4 3 13 4 18 1 6 3 14 4 19 0 5 11 11 23 13 14 2
24 12 28 28 3 14 14 27 25 29 23 4 38 23 25 31 -11 7 -1 22 25 36 11 6 21 21
23 33 2 14 9 21 17 17 19 -7 36 35 37 92 0 34 24 46 30 15 2 -12 11 -2 26 30
12 26 26 47 30 47 15 0 36 54 34 88 -1 25 3 32 16 32 20 0 63 85 65 129 1 14
9 34 17 44 19 22 21 67 3 67 -7 0 -13 7 -13 15 0 8 6 15 14 15 13 0 26 19 32
48 1 6 -1 12 -6 12 -4 0 -10 8 -13 19 -3 14 0 17 14 14 11 -3 19 -12 19 -20 0
-8 6 -13 13 -11 14 5 29 100 22 144 -4 23 -1 33 10 38 17 6 20 53 4 58 -7 2
-5 11 7 23 11 10 19 23 20 29 0 6 4 22 8 35 5 14 4 27 -3 34 -6 6 -7 15 -2 21
11 14 23 76 27 141 2 28 7 85 11 127 5 42 5 74 1 72 -5 -3 -8 2 -8 11 0 10 5
13 12 9 7 -5 8 -3 3 7 -5 7 -8 30 -6 51 2 29 -1 38 -13 38 -9 0 -16 7 -16 15
0 10 10 15 28 15 21 0 27 -5 29 -22z m90 -360 c-3 -8 -6 -5 -6 6 -1 11 2 17 5
13 3 -3 4 -12 1 -19z m-4138 -40 c-1 -18 -3 -25 -6 -15 -2 9 -9 17 -14 17 -5
0 -9 7 -9 15 0 8 7 15 15 15 10 0 15 -10 14 -32z m-1479 -8 c0 -5 -5 -10 -11
-10 -5 0 -7 5 -4 10 3 6 8 10 11 10 2 0 4 -4 4 -10z m5620 -245 c0 -8 -4 -15
-10 -15 -5 0 -10 7 -10 15 0 8 5 15 10 15 6 0 10 -7 10 -15z m-240 -61 c0 -8
-5 -12 -10 -9 -6 4 -8 11 -5 16 9 14 15 11 15 -7z m207 -36 c-3 -8 -6 -5 -6 6
-1 11 2 17 5 13 3 -3 4 -12 1 -19z m33 7 c0 -8 -4 -15 -8 -15 -5 0 -9 7 -9 15
0 8 4 15 9 15 4 0 8 -7 8 -15z m-9370 -140 c0 -8 -7 -15 -15 -15 -8 0 -15 7
-15 15 0 8 7 15 15 15 8 0 15 -7 15 -15z m9280 -100 c0 -8 -7 -15 -15 -15 -8
0 -15 7 -15 15 0 8 7 15 15 15 8 0 15 -7 15 -15z m-9610 -20 c0 -8 -7 -15 -15
-15 -8 0 -15 7 -15 15 0 8 7 15 15 15 8 0 15 -7 15 -15z m9280 -225 c0 -5 -5
-10 -11 -10 -5 0 -7 5 -4 10 3 6 8 10 11 10 2 0 4 -4 4 -10z m-5920 -105 c0
-8 -7 -15 -15 -15 -8 0 -15 7 -15 15 0 8 7 15 15 15 8 0 15 -7 15 -15z m-3129
-128 c-10 -9 -11 -8 -5 6 3 10 9 15 12 12 3 -3 0 -11 -7 -18z m5419 -62 c0 -8
-7 -15 -16 -15 -8 0 -13 4 -10 9 4 5 0 12 -6 14 -7 3 -3 6 10 6 13 1 22 -5 22
-14z m3357 -97 c-3 -8 -6 -5 -6 6 -1 11 2 17 5 13 3 -3 4 -12 1 -19z m-6309
-46 c2 -7 -3 -12 -12 -12 -9 0 -16 7 -16 16 0 17 22 14 28 -4z m3792 -9 c0
-10 -4 -14 -8 -8 -4 6 -11 13 -16 18 -5 4 -2 7 7 7 10 0 17 -8 17 -17z m2640
-118 c0 -8 -7 -15 -15 -15 -8 0 -15 7 -15 15 0 8 7 15 15 15 8 0 15 -7 15 -15z
m-2340 -55 c0 -5 -7 -10 -15 -10 -8 0 -15 5 -15 10 0 6 7 10 15 10 8 0 15 -4
15 -10z m-4570 -55 c0 -8 -7 -15 -15 -15 -8 0 -15 7 -15 15 0 8 7 15 15 15 8
0 15 -7 15 -15z m6370 -16 c0 -5 -7 -9 -15 -9 -15 0 -20 12 -9 23 8 8 24 -1
24 -14z m-7732 -36 c-11 -3 -18 -14 -18 -29 0 -15 -6 -24 -15 -24 -10 0 -15
10 -15 30 0 27 3 30 33 29 17 -1 24 -3 15 -6z m4972 -18 c0 -8 -7 -15 -15 -15
-8 0 -15 7 -15 15 0 8 7 15 15 15 8 0 15 -7 15 -15z m-3670 -19 c0 -19 -14
-28 -34 -20 -12 5 -13 9 -3 20 16 18 37 18 37 0z m6224 -4 c9 -15 -6 -52 -20
-52 -9 0 -14 11 -14 30 0 29 21 42 34 22z m-6044 -32 c0 -5 -4 -10 -10 -10 -5
0 -10 5 -10 10 0 6 5 10 10 10 6 0 10 -4 10 -10z m3488 -2 c-6 -18 -28 -21
-28 -4 0 9 7 16 16 16 9 0 14 -5 12 -12z m-4045 -23 c-3 -9 -8 -14 -10 -11 -3
3 -2 9 2 15 9 16 15 13 8 -4z m7017 -10 c0 -8 -6 -15 -13 -15 -8 0 -14 7 -14
15 0 8 6 15 14 15 7 0 13 -7 13 -15z m-930 -30 c0 -8 -7 -15 -15 -15 -8 0 -15
7 -15 15 0 8 7 15 15 15 8 0 15 -7 15 -15z m-7548 -19 c7 4 8 2 4 -4 -11 -18
-26 -14 -25 6 0 10 3 12 6 4 2 -6 10 -9 15 -6z m5598 -71 c0 -8 -7 -15 -15
-15 -8 0 -15 7 -15 15 0 8 7 15 15 15 8 0 15 -7 15 -15z m2790 -5 c0 -5 -7
-10 -16 -10 -8 0 -12 5 -9 10 3 6 10 10 16 10 5 0 9 -4 9 -10z m-7630 -75 c0
-9 -9 -15 -21 -15 -15 0 -19 -5 -15 -15 4 -11 -2 -15 -23 -15 -18 0 -28 5 -28
15 0 8 4 15 9 15 4 0 8 -5 8 -11 0 -5 4 -8 9 -5 5 3 7 15 4 26 -5 17 0 20 26
20 21 0 31 -5 31 -15z m5168 -223 c2 -7 -3 -12 -12 -12 -9 0 -16 7 -16 16 0
17 22 14 28 -4z m152 -57 c0 -8 7 -15 15 -15 8 0 15 -7 15 -15 0 -8 -7 -15
-15 -15 -8 0 -15 7 -15 15 0 8 -7 15 -15 15 -8 0 -15 7 -15 15 0 8 7 15 15 15
8 0 15 -7 15 -15z"/>
<path d="M2900 5115 c0 -8 -4 -15 -10 -15 -5 0 -10 6 -10 12 0 7 -10 3 -22 -9
-12 -13 -20 -24 -17 -27 4 -4 54 -9 77 -7 17 1 15 48 -3 55 -9 3 -15 0 -15 -9z"/>
<path d="M2926 5061 c-3 -4 3 -16 14 -26 11 -10 20 -23 20 -29 0 -13 81 -78
88 -71 2 2 4 23 4 46 -1 51 -14 68 -38 48 -15 -12 -17 -12 -12 1 2 8 -1 20 -8
27 -14 15 -60 17 -68 4z m57 -36 c-3 -9 -8 -14 -10 -11 -3 3 -2 9 2 15 9 16
15 13 8 -4z"/>
<path d="M3078 4993 c-3 -34 3 -57 15 -65 9 -6 9 -8 -1 -8 -7 0 -10 -4 -7 -10
3 -5 22 -8 41 -5 18 2 34 0 34 -5 0 -6 -5 -10 -12 -10 -6 0 2 -11 17 -24 28
-25 29 -25 43 -5 7 10 17 17 22 14 14 -9 22 14 15 45 -6 26 -11 30 -41 30 -24
0 -34 -5 -34 -15 0 -10 -10 -15 -30 -15 -20 0 -30 5 -30 15 0 8 5 15 10 15 6
0 10 5 10 11 0 5 -5 7 -12 3 -7 -5 -9 -2 -6 8 4 8 -2 20 -13 26 -16 10 -19 9
-21 -5z"/>
<path d="M9785 4530 c-3 -5 -1 -10 4 -10 6 0 11 5 11 10 0 6 -2 10 -4 10 -3 0
-8 -4 -11 -10z"/>
<path d="M9745 4495 c-10 -13 -23 -21 -27 -19 -5 3 -12 -5 -17 -18 -6 -13 -10
-17 -10 -10 -1 8 -13 4 -34 -12 -28 -21 -33 -31 -29 -56 4 -30 32 -43 32 -15
0 14 11 19 38 16 6 -1 12 3 12 9 0 5 -4 10 -10 10 -5 0 -10 7 -10 15 0 8 5 16
10 16 6 1 16 2 23 3 6 1 17 -1 23 -6 8 -6 10 2 7 27 -3 26 0 35 12 35 8 0 15
4 15 9 0 20 -16 18 -35 -4z"/>
<path d="M6141 7634 c0 -11 3 -14 6 -6 3 7 2 16 -1 19 -3 4 -6 -2 -5 -13z"/>
<path d="M6711 6734 c0 -11 3 -14 6 -6 3 7 2 16 -1 19 -3 4 -6 -2 -5 -13z"/>
<path d="M2935 9111 c-6 -11 9 -23 19 -14 9 9 7 23 -3 23 -6 0 -12 -4 -16 -9z"/>
<path d="M5870 8200 c0 -5 5 -10 11 -10 5 0 7 5 4 10 -3 6 -8 10 -11 10 -2 0
-4 -4 -4 -10z"/>
</g>
</svg>
